<?xml version="1.0" encoding="UTF-8"?>
<!DOCTYPE svg PUBLIC "-//W3C//DTD SVG 1.1//EN" "http://www.w3.org/Graphics/SVG/1.1/DTD/svg11.dtd">
<svg xmlns="http://www.w3.org/2000/svg" version="1.1" width="716px" height="724px" style="shape-rendering:geometricPrecision; text-rendering:geometricPrecision; image-rendering:optimizeQuality; fill-rule:evenodd; clip-rule:evenodd" xmlns:xlink="http://www.w3.org/1999/xlink">
<g><path style="opacity:0.045" fill="#fefafa" d="M 444.5,18.5 C 442.833,18.5 441.167,18.5 439.5,18.5C 438.167,18.5 436.833,18.5 435.5,18.5C 424.092,14.2625 412.092,11.9292 399.5,11.5C 396.833,11.5 394.167,11.5 391.5,11.5C 389.012,9.61216 386.012,8.9455 382.5,9.5C 380.833,9.5 379.167,9.5 377.5,9.5C 364.5,9.5 351.5,9.5 338.5,9.5C 335.833,9.5 333.167,9.5 330.5,9.5C 326.671,8.93104 323.337,9.59771 320.5,11.5C 317.833,11.5 315.167,11.5 312.5,11.5C 307.187,12.0978 301.854,12.4312 296.5,12.5C 304.291,10.4512 312.291,8.95118 320.5,8C 345.5,7.33333 370.5,7.33333 395.5,8C 406.316,10.3817 417.316,12.0483 428.5,13C 434.227,14.3615 439.56,16.1949 444.5,18.5 Z"/></g>
<g><path style="opacity:0.675" fill="#e9b1b2" d="M 330.5,9.5 C 330.389,10.1174 330.056,10.6174 329.5,11C 326.518,11.498 323.518,11.6646 320.5,11.5C 323.337,9.59771 326.671,8.93104 330.5,9.5 Z"/></g>
<g><path style="opacity:0.999" fill="#ca474b" d="M 338.5,9.5 C 351.5,9.5 364.5,9.5 377.5,9.5C 377.414,10.4959 377.748,11.3292 378.5,12C 401.816,14.06 424.816,17.56 447.5,22.5C 449.95,22.298 452.283,22.6314 454.5,23.5C 460.891,26.102 467.557,28.102 474.5,29.5C 488.262,34.8794 501.929,40.546 515.5,46.5C 515.856,47.8699 516.69,48.8699 518,49.5C 521.369,50.4368 524.536,51.7702 527.5,53.5C 529.179,53.2852 530.179,53.9519 530.5,55.5C 532.67,58.4628 535.67,60.1294 539.5,60.5C 543.618,64.2721 548.285,67.2721 553.5,69.5C 554.853,71.1827 556.52,72.5161 558.5,73.5C 563.508,75.6677 568.175,78.3344 572.5,81.5C 573.316,84.5467 575.316,86.2134 578.5,86.5C 580.882,89.5483 583.548,92.2149 586.5,94.5C 587.623,97.1431 589.623,98.8098 592.5,99.5C 593.649,105.593 597.316,109.26 603.5,110.5C 608.807,114.806 613.807,119.473 618.5,124.5C 619.279,126.677 620.613,128.344 622.5,129.5C 622.167,132.5 623.5,133.833 626.5,133.5C 633.163,141.844 639.497,150.511 645.5,159.5C 645.979,161.889 647.312,163.556 649.5,164.5C 650.35,166.603 651.35,168.603 652.5,170.5C 653.124,172.754 654.457,174.421 656.5,175.5C 657.523,177.846 658.523,180.179 659.5,182.5C 659.929,185.147 661.262,187.147 663.5,188.5C 665.566,190.903 667.232,193.57 668.5,196.5C 668.909,200.33 670.576,203.33 673.5,205.5C 674.502,207.011 675.169,208.678 675.5,210.5C 675.595,212.786 676.262,214.786 677.5,216.5C 679.294,218.428 680.294,220.762 680.5,223.5C 682.202,228.327 684.202,232.993 686.5,237.5C 687.404,238.209 687.737,239.209 687.5,240.5C 688.836,247.331 691.169,253.664 694.5,259.5C 694.338,261.527 694.505,263.527 695,265.5C 695.383,266.056 695.883,266.389 696.5,266.5C 696.5,267.5 696.5,268.5 696.5,269.5C 698.651,278.004 700.318,286.671 701.5,295.5C 703.865,308.7 705.698,322.033 707,335.5C 707.278,336.416 707.778,337.082 708.5,337.5C 708.775,354.195 708.441,370.861 707.5,387.5C 706.092,397.7 704.759,408.033 703.5,418.5C 701.295,425.199 699.961,432.199 699.5,439.5C 695.316,453.821 691.316,468.154 687.5,482.5C 687.5,483.167 687.5,483.833 687.5,484.5C 685.383,486.7 683.716,489.367 682.5,492.5C 679.752,500.319 676.752,507.986 673.5,515.5C 673.5,515.833 673.5,516.167 673.5,516.5C 669.778,520.927 666.778,525.927 664.5,531.5C 664.5,532.167 664.5,532.833 664.5,533.5C 660.458,537.398 657.458,542.065 655.5,547.5C 654.99,550.086 653.99,552.419 652.5,554.5C 650.173,556.498 648.173,558.832 646.5,561.5C 641.615,566.107 637.615,571.44 634.5,577.5C 634.167,578.167 633.833,578.833 633.5,579.5C 629.679,581.896 627.013,585.229 625.5,589.5C 619.958,596.477 614.291,603.144 608.5,609.5C 605.604,610.398 603.271,612.065 601.5,614.5C 601.218,615.778 600.551,616.778 599.5,617.5C 597.539,618.46 595.873,619.793 594.5,621.5C 593.934,623.078 592.934,624.412 591.5,625.5C 586.82,628.53 582.487,631.863 578.5,635.5C 575.74,636.744 573.073,638.244 570.5,640C 568.859,641.129 567.859,642.629 567.5,644.5C 567.167,644.5 566.833,644.5 566.5,644.5C 564.06,645.238 562.06,646.571 560.5,648.5C 560.5,649.167 560.167,649.5 559.5,649.5C 556.95,650.057 554.95,651.39 553.5,653.5C 547.763,658.195 541.43,662.195 534.5,665.5C 531.933,666.475 529.267,667.142 526.5,667.5C 526.5,668.5 526.5,669.5 526.5,670.5C 523.763,671.217 521.43,672.55 519.5,674.5C 519.167,674.5 518.833,674.5 518.5,674.5C 513.503,675.726 509.17,678.06 505.5,681.5C 504.5,681.5 503.5,681.5 502.5,681.5C 495.163,685.255 487.496,688.255 479.5,690.5C 477.668,691.057 476.335,692.057 475.5,693.5C 471.563,693.741 468.23,695.074 465.5,697.5C 460.517,698.663 455.517,699.997 450.5,701.5C 447.873,702.105 445.207,702.605 442.5,703C 441.944,703.383 441.611,703.883 441.5,704.5C 440.167,704.5 438.833,704.5 437.5,704.5C 435.517,704.157 434.183,704.824 433.5,706.5C 431.5,706.5 429.5,706.5 427.5,706.5C 423.202,707.2 418.869,707.533 414.5,707.5C 379.043,713.376 343.376,714.043 307.5,709.5C 305.167,709.5 302.833,709.5 300.5,709.5C 300.389,708.883 300.056,708.383 299.5,708C 287.934,706.211 276.601,703.711 265.5,700.5C 264.167,700.5 262.833,700.5 261.5,700.5C 261.389,699.883 261.056,699.383 260.5,699C 256.135,697.885 251.801,696.718 247.5,695.5C 246.5,695.5 245.5,695.5 244.5,695.5C 240.814,692.627 236.481,690.961 231.5,690.5C 224.049,687.803 216.715,684.803 209.5,681.5C 207.966,679.631 205.966,678.298 203.5,677.5C 199.314,674.939 194.981,672.273 190.5,669.5C 188.547,668.844 186.547,668.511 184.5,668.5C 181.421,667.004 178.421,665.338 175.5,663.5C 174.44,660.231 172.107,658.565 168.5,658.5C 168.167,658.5 167.833,658.5 167.5,658.5C 166.554,655.687 164.554,654.354 161.5,654.5C 159.196,652.501 156.863,650.501 154.5,648.5C 153.147,646.262 151.147,644.929 148.5,644.5C 136.591,636.259 125.591,626.926 115.5,616.5C 114.08,613.412 111.747,611.412 108.5,610.5C 101.166,603.665 94.3326,596.331 88,588.5C 85.3333,584.5 82.6667,580.5 80,576.5C 76.6981,574.78 74.5314,572.114 73.5,568.5C 72.8763,566.246 71.543,564.579 69.5,563.5C 68.503,560.845 66.8363,558.845 64.5,557.5C 62.6666,552.914 60.3333,548.581 57.5,544.5C 56.5254,542.205 55.1921,540.205 53.5,538.5C 51.6432,535.586 49.9765,532.586 48.5,529.5C 47.1282,526.18 45.4615,523.18 43.5,520.5C 43.5,519.833 43.5,519.167 43.5,518.5C 42.6214,515.299 40.9547,512.632 38.5,510.5C 38.5,509.167 38.5,507.833 38.5,506.5C 36.9389,502.541 34.9389,498.874 32.5,495.5C 30.9451,489.703 28.6118,484.369 25.5,479.5C 23.4062,472.935 21.7395,466.268 20.5,459.5C 19.9396,457.199 19.4396,454.866 19,452.5C 18.6174,451.944 18.1174,451.611 17.5,451.5C 17.6633,449.143 17.4966,446.81 17,444.5C 14.7217,439.116 12.8884,433.782 11.5,428.5C 11.5,426.833 11.5,425.167 11.5,423.5C 9.85645,411.55 8.85645,399.55 8.5,387.5C 7.21855,366.51 7.21855,345.51 8.5,324.5C 8.5,322.5 8.5,320.5 8.5,318.5C 9.11742,318.389 9.61742,318.056 10,317.5C 10.8704,308.462 12.0371,299.462 13.5,290.5C 14.8041,283.469 16.4707,276.469 18.5,269.5C 19.3705,266.997 20.0372,264.33 20.5,261.5C 20.5,260.5 20.5,259.5 20.5,258.5C 22.2413,256.605 23.2413,254.272 23.5,251.5C 25.8434,248.662 27.1767,245.329 27.5,241.5C 27.5,240.167 27.5,238.833 27.5,237.5C 28.8846,236.426 30.0513,235.093 31,233.5C 32.4047,230.258 33.5714,226.924 34.5,223.5C 34.5,222.5 34.5,221.5 34.5,220.5C 37.4095,218.241 39.0761,215.241 39.5,211.5C 40.3646,208.299 41.6979,205.299 43.5,202.5C 46.4095,200.241 48.0761,197.241 48.5,193.5C 49.5323,191.285 50.8656,189.285 52.5,187.5C 57.8449,177.986 63.5116,168.653 69.5,159.5C 72.2025,155.151 75.2025,151.151 78.5,147.5C 81.9457,145.385 84.279,142.385 85.5,138.5C 89.7225,133.854 93.7225,128.854 97.5,123.5C 104.957,116.372 112.457,109.372 120,102.5C 120.483,101.552 120.649,100.552 120.5,99.5C 121.552,99.6495 122.552,99.4828 123.5,99C 124.985,96.7631 126.985,95.2631 129.5,94.5C 133.482,91.8482 137.149,88.8482 140.5,85.5C 142.167,83.8333 143.833,82.1667 145.5,80.5C 147.928,79.5846 150.261,78.4179 152.5,77C 153.823,76.1841 154.489,75.0174 154.5,73.5C 155.167,73.5 155.833,73.5 156.5,73.5C 160.984,69.753 165.984,66.753 171.5,64.5C 174.614,62.6203 177.28,60.287 179.5,57.5C 182.746,55.0108 186.413,53.3441 190.5,52.5C 196.518,50.497 201.851,47.497 206.5,43.5C 207.605,42.3995 208.938,41.7329 210.5,41.5C 213.979,40.7964 217.312,39.6298 220.5,38C 222.093,37.0513 223.426,35.8846 224.5,34.5C 228.833,33.1667 233.167,31.8333 237.5,30.5C 241.991,29.5913 245.991,27.9246 249.5,25.5C 250.167,25.5 250.833,25.5 251.5,25.5C 256.645,24.8118 261.645,23.8118 266.5,22.5C 275.047,20.9855 283.38,18.8188 291.5,16C 295.5,15.6667 299.5,15.3333 303.5,15C 304.056,14.6174 304.389,14.1174 304.5,13.5C 306.833,13.5 309.167,13.5 311.5,13.5C 319.486,12.8896 327.486,12.3896 335.5,12C 336.942,11.6232 337.942,10.7899 338.5,9.5 Z"/></g>
<g><path style="opacity:0.639" fill="#e9b2b4" d="M 382.5,9.5 C 386.012,8.9455 389.012,9.61216 391.5,11.5C 388.813,11.6641 386.146,11.4974 383.5,11C 382.944,10.6174 382.611,10.1174 382.5,9.5 Z"/></g>
<g><path style="opacity:0.29" fill="#ebb7b8" d="M 312.5,11.5 C 312.167,12.1667 311.833,12.8333 311.5,13.5C 309.167,13.5 306.833,13.5 304.5,13.5C 301.518,13.9629 298.518,14.2962 295.5,14.5C 295.167,13.8333 294.833,13.1667 294.5,12.5C 295.167,12.5 295.833,12.5 296.5,12.5C 301.854,12.4312 307.187,12.0978 312.5,11.5 Z"/></g>
<g><path style="opacity:0.863" fill="#d56a6d" d="M 330.5,9.5 C 333.167,9.5 335.833,9.5 338.5,9.5C 337.942,10.7899 336.942,11.6232 335.5,12C 327.486,12.3896 319.486,12.8896 311.5,13.5C 311.833,12.8333 312.167,12.1667 312.5,11.5C 315.167,11.5 317.833,11.5 320.5,11.5C 323.518,11.6646 326.518,11.498 329.5,11C 330.056,10.6174 330.389,10.1174 330.5,9.5 Z"/></g>
<g><path style="opacity:0.416" fill="#da7c7e" d="M 304.5,13.5 C 304.389,14.1174 304.056,14.6174 303.5,15C 299.5,15.3333 295.5,15.6667 291.5,16C 283.38,18.8188 275.047,20.9855 266.5,22.5C 268.63,21.2895 270.63,19.9561 272.5,18.5C 280.167,17.1667 287.833,15.8333 295.5,14.5C 298.518,14.2962 301.518,13.9629 304.5,13.5 Z"/></g>
<g><path style="opacity:0.565" fill="#e19395" d="M 399.5,11.5 C 412.092,11.9292 424.092,14.2625 435.5,18.5C 423.212,16.7749 411.212,14.4416 399.5,11.5 Z"/></g>
<g><path style="opacity:0.028" fill="#fcf7f7" d="M 294.5,12.5 C 294.833,13.1667 295.167,13.8333 295.5,14.5C 287.833,15.8333 280.167,17.1667 272.5,18.5C 269.609,19.4025 266.609,19.7359 263.5,19.5C 271.111,17.5723 278.778,15.4057 286.5,13C 289.146,12.5026 291.813,12.3359 294.5,12.5 Z"/></g>
<g><path style="opacity:0.968" fill="#d05a5d" d="M 377.5,9.5 C 379.167,9.5 380.833,9.5 382.5,9.5C 382.611,10.1174 382.944,10.6174 383.5,11C 386.146,11.4974 388.813,11.6641 391.5,11.5C 394.167,11.5 396.833,11.5 399.5,11.5C 411.212,14.4416 423.212,16.7749 435.5,18.5C 436.833,18.5 438.167,18.5 439.5,18.5C 442.261,19.7382 444.928,21.0715 447.5,22.5C 424.816,17.56 401.816,14.06 378.5,12C 377.748,11.3292 377.414,10.4959 377.5,9.5 Z"/></g>
<g><path style="opacity:0.044" fill="#fefcfc" d="M 263.5,19.5 C 260.194,22.3573 256.194,23.6907 251.5,23.5C 251.611,22.8826 251.944,22.3826 252.5,22C 256.189,21.1484 259.856,20.3151 263.5,19.5 Z"/></g>
<g><path style="opacity:0.714" fill="#e9b1b2" d="M 272.5,18.5 C 270.63,19.9561 268.63,21.2895 266.5,22.5C 261.645,23.8118 256.645,24.8118 251.5,25.5C 251.5,24.8333 251.5,24.1667 251.5,23.5C 256.194,23.6907 260.194,22.3573 263.5,19.5C 266.609,19.7359 269.609,19.4025 272.5,18.5 Z"/></g>
<g><path style="opacity:0.037" fill="#fcf5f5" d="M 444.5,18.5 C 456.306,20.2947 467.973,22.7947 479.5,26C 491.836,32.2305 504.502,37.8972 517.5,43C 525.6,49.048 534.267,54.048 543.5,58C 556.513,66.8421 569.179,76.1754 581.5,86C 584.519,88.638 587.185,91.4713 589.5,94.5C 588.5,94.5 587.5,94.5 586.5,94.5C 583.548,92.2149 580.882,89.5483 578.5,86.5C 575.316,86.2134 573.316,84.5467 572.5,81.5C 568.175,78.3344 563.508,75.6677 558.5,73.5C 558.213,70.5159 556.546,69.1826 553.5,69.5C 553.461,68.4168 553.127,67.4168 552.5,66.5C 548.3,64.1386 543.966,62.1386 539.5,60.5C 538.253,58.822 536.586,57.4887 534.5,56.5C 533.311,55.5713 531.978,55.238 530.5,55.5C 530.179,53.9519 529.179,53.2852 527.5,53.5C 526.916,51.7431 525.749,50.4098 524,49.5C 521.078,48.6162 518.245,47.6162 515.5,46.5C 510.923,43.3972 505.923,40.7305 500.5,38.5C 491.59,35.6017 482.923,32.2684 474.5,28.5C 469.96,27.5161 465.627,26.0161 461.5,24C 459.527,23.5045 457.527,23.3379 455.5,23.5C 451.868,21.9313 448.201,20.2647 444.5,18.5 Z"/></g>
<g><path style="opacity:0.514" fill="#e8acae" d="M 439.5,18.5 C 441.167,18.5 442.833,18.5 444.5,18.5C 448.201,20.2647 451.868,21.9313 455.5,23.5C 455.167,23.5 454.833,23.5 454.5,23.5C 452.283,22.6314 449.95,22.298 447.5,22.5C 444.928,21.0715 442.261,19.7382 439.5,18.5 Z"/></g>
<g><path style="opacity:0.545" fill="#dd8486" d="M 454.5,23.5 C 454.833,23.5 455.167,23.5 455.5,23.5C 457.527,23.3379 459.527,23.5045 461.5,24C 465.627,26.0161 469.96,27.5161 474.5,28.5C 474.5,28.8333 474.5,29.1667 474.5,29.5C 467.557,28.102 460.891,26.102 454.5,23.5 Z"/></g>
<g><path style="opacity:0.314" fill="#e7abad" d="M 249.5,25.5 C 245.991,27.9246 241.991,29.5913 237.5,30.5C 238.007,29.1411 239.007,28.1411 240.5,27.5C 243.438,26.5109 246.438,25.8442 249.5,25.5 Z"/></g>
<g><path style="opacity:1" fill="#d56b6e" d="M 378.5,32.5 C 364.833,32.5 351.167,32.5 337.5,32.5C 345.282,31.0331 353.282,30.3664 361.5,30.5C 366.5,30.6667 371.5,30.8333 376.5,31C 377.416,31.2784 378.082,31.7784 378.5,32.5 Z"/></g>
<g><path style="opacity:1" fill="#da7e81" d="M 335.5,32.5 C 335.5,32.8333 335.5,33.1667 335.5,33.5C 333.5,33.5 331.5,33.5 329.5,33.5C 325.785,33.423 322.119,33.7564 318.5,34.5C 323.735,32.55 329.402,31.8833 335.5,32.5 Z"/></g>
<g><path style="opacity:1" fill="#e2999a" d="M 335.5,33.5 C 335.5,33.1667 335.5,32.8333 335.5,32.5C 336.167,32.5 336.833,32.5 337.5,32.5C 351.167,32.5 364.833,32.5 378.5,32.5C 386.509,31.945 394.176,32.945 401.5,35.5C 379.562,33.6644 357.562,32.9977 335.5,33.5 Z"/></g>
<g><path style="opacity:1" fill="#fefefe" d="M 329.5,33.5 C 331.5,33.5 333.5,33.5 335.5,33.5C 357.562,32.9977 379.562,33.6644 401.5,35.5C 406.223,37.2249 411.223,38.2249 416.5,38.5C 419.167,38.5 421.833,38.5 424.5,38.5C 424.611,39.1174 424.944,39.6174 425.5,40C 428.544,40.3629 431.544,40.8629 434.5,41.5C 437.402,42.5778 440.402,43.2444 443.5,43.5C 445.102,45.0739 447.102,45.7406 449.5,45.5C 453.838,46.8338 458.172,48.1672 462.5,49.5C 464.395,51.2413 466.728,52.2413 469.5,52.5C 471.415,52.2155 473.081,52.5489 474.5,53.5C 478.586,55.8701 482.919,57.8701 487.5,59.5C 488.167,59.5 488.833,59.5 489.5,59.5C 493.375,62.3737 497.708,64.707 502.5,66.5C 509.815,70.1348 517.148,73.8015 524.5,77.5C 525.265,79.929 526.931,81.2623 529.5,81.5C 556.51,97.1797 580.177,116.846 600.5,140.5C 601.08,142.749 602.413,144.415 604.5,145.5C 614.341,155.483 623.008,166.483 630.5,178.5C 631.223,182.565 633.223,185.899 636.5,188.5C 638.861,191.228 640.861,194.228 642.5,197.5C 642.025,200.313 643.025,202.313 645.5,203.5C 648.674,208.516 651.341,213.849 653.5,219.5C 654.06,221.801 654.56,224.134 655,226.5C 658.669,232.394 661.836,238.394 664.5,244.5C 665.405,249.26 667.072,253.593 669.5,257.5C 671.648,264.422 673.648,271.422 675.5,278.5C 676.219,280.764 676.552,283.097 676.5,285.5C 677.122,293.275 678.289,300.941 680,308.5C 680.383,309.056 680.883,309.389 681.5,309.5C 681.5,310.167 681.5,310.833 681.5,311.5C 681.702,320.888 682.535,330.222 684,339.5C 684.719,357.847 684.553,376.18 683.5,394.5C 683.5,397.167 683.5,399.833 683.5,402.5C 683.5,402.833 683.5,403.167 683.5,403.5C 681.598,406.337 680.931,409.671 681.5,413.5C 681.552,415.903 681.219,418.236 680.5,420.5C 678.252,426.516 676.918,432.85 676.5,439.5C 675.079,443.33 674.079,447.33 673.5,451.5C 673.5,452.5 673.5,453.5 673.5,454.5C 671.787,455.635 671.12,457.302 671.5,459.5C 668.97,464.898 667.304,470.565 666.5,476.5C 662.79,482.638 659.79,489.305 657.5,496.5C 655.017,499.347 653.35,502.68 652.5,506.5C 650.015,510.301 648.015,514.301 646.5,518.5C 644.281,519.828 642.948,521.828 642.5,524.5C 640.826,527.849 639.159,531.182 637.5,534.5C 637.167,534.5 636.833,534.5 636.5,534.5C 634.412,536.336 633.079,538.669 632.5,541.5C 630.124,544.217 628.124,547.217 626.5,550.5C 622.923,554.659 619.589,558.993 616.5,563.5C 616.5,564.167 616.167,564.5 615.5,564.5C 612.815,567.19 610.482,570.19 608.5,573.5C 606.413,574.585 605.08,576.251 604.5,578.5C 602.469,579.539 601.136,581.205 600.5,583.5C 597.833,584.167 596.167,585.833 595.5,588.5C 589.473,593.194 584.14,598.527 579.5,604.5C 574.52,607.486 570.187,611.153 566.5,615.5C 559.273,620.605 552.273,625.938 545.5,631.5C 538.914,634.835 532.914,639.002 527.5,644C 524.558,644.697 521.891,645.864 519.5,647.5C 516.296,648.383 513.629,650.05 511.5,652.5C 508.609,653.541 505.942,654.874 503.5,656.5C 499.952,658.105 496.286,659.438 492.5,660.5C 491.23,661.288 490.23,662.288 489.5,663.5C 483.73,664.962 478.397,667.295 473.5,670.5C 471.473,670.338 469.473,670.505 467.5,671C 466.944,671.383 466.611,671.883 466.5,672.5C 462.12,673.293 457.786,674.293 453.5,675.5C 447.385,676.434 441.718,678.101 436.5,680.5C 435.167,681.167 433.833,681.833 432.5,682.5C 429.813,682.336 427.146,682.503 424.5,683C 420.062,683.985 415.729,685.152 411.5,686.5C 409.167,686.5 406.833,686.5 404.5,686.5C 396.933,686.841 389.6,687.841 382.5,689.5C 380.167,689.5 377.833,689.5 375.5,689.5C 359.167,689.5 342.833,689.5 326.5,689.5C 324.708,689.634 323.042,689.301 321.5,688.5C 316.668,687.6 311.668,686.934 306.5,686.5C 305.5,686.5 304.5,686.5 303.5,686.5C 287.813,682.091 271.813,678.091 255.5,674.5C 254.508,674.672 253.842,674.338 253.5,673.5C 249.895,670.321 245.562,668.988 240.5,669.5C 235.846,666.747 230.846,664.747 225.5,663.5C 220.615,659.342 214.949,656.342 208.5,654.5C 208.167,654.5 207.833,654.5 207.5,654.5C 203.816,651.248 199.483,648.915 194.5,647.5C 192.326,647.25 190.659,646.25 189.5,644.5C 185.402,640.759 180.736,637.759 175.5,635.5C 170.909,632.915 166.576,629.915 162.5,626.5C 161.415,624.413 159.749,623.08 157.5,622.5C 152.804,619.157 148.137,615.824 143.5,612.5C 142.386,609.596 140.386,607.596 137.5,606.5C 131.167,600.833 125.167,594.833 119.5,588.5C 119.461,587.417 119.127,586.417 118.5,585.5C 116.071,583.071 113.737,580.737 111.5,578.5C 109.167,576.5 106.833,574.5 104.5,572.5C 94.1048,557.789 83.7715,543.122 73.5,528.5C 71.9259,523.68 69.5926,519.347 66.5,515.5C 64.2864,508.742 61.2864,502.408 57.5,496.5C 56.962,494.883 56.6287,493.216 56.5,491.5C 53.9797,483.461 50.6464,475.795 46.5,468.5C 45.6976,465.426 44.6976,462.426 43.5,459.5C 41.6688,451.855 39.8354,444.188 38,436.5C 37.6174,435.944 37.1174,435.611 36.5,435.5C 36.5,434.5 36.5,433.5 36.5,432.5C 36.0013,428.51 35.5013,424.51 35,420.5C 34.7216,419.584 34.2216,418.918 33.5,418.5C 33.5,417.833 33.5,417.167 33.5,416.5C 33.1995,407.493 32.6995,398.493 32,389.5C 31.7216,388.584 31.2216,387.918 30.5,387.5C 30.5,387.167 30.5,386.833 30.5,386.5C 30.2101,364.474 30.5435,342.474 31.5,320.5C 31.5401,315.807 31.8734,311.141 32.5,306.5C 34.6566,301.477 35.99,296.143 36.5,290.5C 36.5,289.167 36.5,287.833 36.5,286.5C 38.2132,285.365 38.8799,283.698 38.5,281.5C 38.5,281.167 38.5,280.833 38.5,280.5C 40.0739,278.898 40.7406,276.898 40.5,274.5C 40.8583,271.311 41.525,268.311 42.5,265.5C 45.6609,261.616 47.3276,256.949 47.5,251.5C 47.5,251.167 47.5,250.833 47.5,250.5C 50.2302,247.369 52.2302,243.702 53.5,239.5C 54.1556,237.547 54.4889,235.547 54.5,233.5C 57.9468,229.136 60.2802,224.136 61.5,218.5C 61.5,218.167 61.5,217.833 61.5,217.5C 64.6376,215.083 66.3042,211.75 66.5,207.5C 68.3264,205.853 69.6597,203.853 70.5,201.5C 72.4116,196.099 75.0783,191.099 78.5,186.5C 82.3771,183.293 85.0438,179.293 86.5,174.5C 90.3689,173.291 92.3689,170.624 92.5,166.5C 94.543,165.421 95.8763,163.754 96.5,161.5C 98.8777,159.122 100.878,156.455 102.5,153.5C 102.5,152.833 102.833,152.5 103.5,152.5C 107.248,149.756 110.248,146.423 112.5,142.5C 114.482,138.854 117.149,135.854 120.5,133.5C 121.5,133.5 122.5,133.5 123.5,133.5C 123.433,132.041 123.766,130.708 124.5,129.5C 126.5,128.167 128.167,126.5 129.5,124.5C 131.785,121.548 134.452,118.882 137.5,116.5C 139.749,115.92 141.415,114.587 142.5,112.5C 144.928,111.585 147.261,110.418 149.5,109C 150.305,107.887 150.972,106.721 151.5,105.5C 153.533,103.132 155.867,101.132 158.5,99.5C 164.03,97.3692 168.696,94.0359 172.5,89.5C 174.495,86.8319 177.162,85.1653 180.5,84.5C 186.701,81.6268 192.368,77.9601 197.5,73.5C 197.833,73.5 198.167,73.5 198.5,73.5C 201.061,72.455 203.394,71.1217 205.5,69.5C 209.241,69.0761 212.241,67.4095 214.5,64.5C 215.167,64.5 215.833,64.5 216.5,64.5C 220.663,64.3094 223.996,62.6427 226.5,59.5C 231.267,59.3642 235.267,57.6975 238.5,54.5C 242.579,54.6645 245.912,53.3312 248.5,50.5C 249.167,50.5 249.833,50.5 250.5,50.5C 255.48,50.1067 259.813,48.44 263.5,45.5C 268.85,44.296 274.183,42.9626 279.5,41.5C 284.103,41.1384 288.436,40.1384 292.5,38.5C 293.167,38.5 293.833,38.5 294.5,38.5C 306.617,38.42 318.283,36.7533 329.5,33.5 Z"/></g>
<g><path style="opacity:0.467" fill="#e4a1a3" d="M 224.5,34.5 C 223.426,35.8846 222.093,37.0513 220.5,38C 217.312,39.6298 213.979,40.7964 210.5,41.5C 214.642,38.4307 219.309,36.0974 224.5,34.5 Z"/></g>
<g><path style="opacity:1" fill="#ecbbbc" d="M 329.5,33.5 C 318.283,36.7533 306.617,38.42 294.5,38.5C 298.658,37.0905 302.992,35.9238 307.5,35C 311.152,34.5014 314.818,34.3347 318.5,34.5C 322.119,33.7564 325.785,33.423 329.5,33.5 Z"/></g>
<g><path style="opacity:1" fill="#ecbabb" d="M 401.5,35.5 C 406.149,36.065 410.816,36.565 415.5,37C 416.056,37.3826 416.389,37.8826 416.5,38.5C 411.223,38.2249 406.223,37.2249 401.5,35.5 Z"/></g>
<g><path style="opacity:0.451" fill="#e5a0a2" d="M 474.5,29.5 C 474.5,29.1667 474.5,28.8333 474.5,28.5C 482.923,32.2684 491.59,35.6017 500.5,38.5C 505.923,40.7305 510.923,43.3972 515.5,46.5C 501.929,40.546 488.262,34.8794 474.5,29.5 Z"/></g>
<g><path style="opacity:1" fill="#df8d8e" d="M 292.5,38.5 C 288.436,40.1384 284.103,41.1384 279.5,41.5C 283.369,39.5605 287.703,38.5605 292.5,38.5 Z"/></g>
<g><path style="opacity:1" fill="#db8183" d="M 424.5,38.5 C 427.456,39.1371 430.456,39.6371 433.5,40C 434.056,40.3826 434.389,40.8826 434.5,41.5C 431.544,40.8629 428.544,40.3629 425.5,40C 424.944,39.6174 424.611,39.1174 424.5,38.5 Z"/></g>
<g><path style="opacity:1" fill="#467a4d" d="M 457.5,186.5 C 457.972,189.358 456.972,191.358 454.5,192.5C 450.261,196.3 445.594,199.633 440.5,202.5C 437.571,203.443 435.237,205.11 433.5,207.5C 429.514,209.811 425.514,212.144 421.5,214.5C 420.817,214.137 420.15,213.804 419.5,213.5C 405.096,192.783 390.763,172.116 376.5,151.5C 374.65,147.789 372.316,144.456 369.5,141.5C 368.602,139.095 367.102,137.095 365,135.5C 363.991,133.975 363.491,132.308 363.5,130.5C 362.167,130.5 360.833,130.5 359.5,130.5C 357.782,132.223 356.449,134.223 355.5,136.5C 355.5,136.833 355.5,137.167 355.5,137.5C 352.203,140.072 349.869,143.405 348.5,147.5C 346.469,148.539 345.136,150.205 344.5,152.5C 340.625,156.979 337.292,161.979 334.5,167.5C 331.782,169.562 329.782,172.228 328.5,175.5C 327.89,176.391 327.557,177.391 327.5,178.5C 324.549,180.659 322.049,183.326 320,186.5C 314.651,195.878 308.818,204.878 302.5,213.5C 299.203,216.072 296.869,219.405 295.5,223.5C 293.469,224.539 292.136,226.205 291.5,228.5C 290.89,229.391 290.557,230.391 290.5,231.5C 286.397,234.612 283.397,238.612 281.5,243.5C 277.707,246.649 275.04,250.649 273.5,255.5C 272.833,255.5 272.5,255.833 272.5,256.5C 269.208,259.057 266.874,262.391 265.5,266.5C 262.203,269.072 259.869,272.405 258.5,276.5C 255.133,279.529 252.467,283.196 250.5,287.5C 248.231,289.242 246.898,291.576 246.5,294.5C 264.69,294.838 282.69,295.838 300.5,297.5C 299.89,298.391 299.557,299.391 299.5,300.5C 297.413,301.585 296.08,303.251 295.5,305.5C 293.662,309.173 291.329,312.507 288.5,315.5C 285.424,318.641 283.091,322.308 281.5,326.5C 277.353,329.99 274.353,334.323 272.5,339.5C 252.139,338.845 232.139,339.512 212.5,341.5C 210.716,345.525 208.382,349.192 205.5,352.5C 202.736,353.948 201.069,356.281 200.5,359.5C 197.445,362.246 195.112,365.579 193.5,369.5C 192.094,369.973 191.427,370.973 191.5,372.5C 188.203,375.072 185.869,378.405 184.5,382.5C 182.11,384.237 180.443,386.571 179.5,389.5C 177.674,391.147 176.34,393.147 175.5,395.5C 173.11,397.237 171.443,399.571 170.5,402.5C 169.094,402.973 168.427,403.973 168.5,405.5C 166.926,405.937 165.759,406.937 165,408.5C 162.05,413.071 159.217,417.738 156.5,422.5C 154.413,423.585 153.08,425.251 152.5,427.5C 152.5,428.167 152.167,428.5 151.5,428.5C 149.412,430.336 148.079,432.669 147.5,435.5C 145.11,437.237 143.443,439.571 142.5,442.5C 139.985,445.475 137.652,448.475 135.5,451.5C 133.412,453.336 132.079,455.669 131.5,458.5C 128.736,459.948 127.069,462.281 126.5,465.5C 125.833,466.5 125.167,467.5 124.5,468.5C 122.613,469.656 121.279,471.323 120.5,473.5C 101.5,473.5 82.5,473.5 63.5,473.5C 63.366,471.708 63.6993,470.042 64.5,468.5C 65.7206,467.972 66.8873,467.305 68,466.5C 68.5019,463.512 69.6686,460.845 71.5,458.5C 80.6747,445.481 89.3414,432.147 97.5,418.5C 97.9569,417.702 98.6236,417.369 99.5,417.5C 101.759,416.656 102.759,414.989 102.5,412.5C 103.708,411.766 105.041,411.433 106.5,411.5C 109.126,404.481 112.96,398.147 118,392.5C 118.608,390.846 119.108,389.179 119.5,387.5C 119.5,386.833 119.833,386.5 120.5,386.5C 122.543,385.421 123.876,383.754 124.5,381.5C 127.013,377.989 129.346,374.322 131.5,370.5C 133.669,368.66 135.002,366.326 135.5,363.5C 137.954,361.298 139.954,358.632 141.5,355.5C 144.246,353.417 146.246,350.75 147.5,347.5C 147.5,347.167 147.5,346.833 147.5,346.5C 149.167,345.5 150.5,344.167 151.5,342.5C 158.18,336.453 162.846,329.12 165.5,320.5C 166.167,319.833 166.833,319.167 167.5,318.5C 172.233,313.735 176.399,308.402 180,302.5C 182.172,299.487 183.672,296.154 184.5,292.5C 186.903,290.73 188.57,288.397 189.5,285.5C 189.427,283.973 190.094,282.973 191.5,282.5C 193.587,281.415 194.92,279.749 195.5,277.5C 196.091,274.116 197.758,271.449 200.5,269.5C 201.932,267.673 203.599,266.006 205.5,264.5C 206.355,262.045 207.355,259.712 208.5,257.5C 209.272,256.306 210.272,255.306 211.5,254.5C 214.632,251.905 216.632,248.572 217.5,244.5C 221.308,242.223 223.641,238.89 224.5,234.5C 226.429,232.94 227.762,230.94 228.5,228.5C 229.167,227.5 229.833,226.5 230.5,225.5C 232.669,223.66 234.002,221.326 234.5,218.5C 236.262,217.738 237.262,216.404 237.5,214.5C 240.575,212.09 242.908,209.09 244.5,205.5C 247.475,200.202 250.808,195.202 254.5,190.5C 256.429,188.94 257.762,186.94 258.5,184.5C 262.003,178.158 266.003,172.158 270.5,166.5C 274.091,161.732 277.925,157.065 282,152.5C 282.608,150.846 283.108,149.179 283.5,147.5C 283.5,146.833 283.833,146.5 284.5,146.5C 286.429,144.94 287.762,142.94 288.5,140.5C 290.522,138.469 292.189,136.135 293.5,133.5C 294.674,132.486 295.34,131.153 295.5,129.5C 298.328,128.004 299.994,125.671 300.5,122.5C 302.543,121.421 303.876,119.754 304.5,117.5C 304.5,117.167 304.5,116.833 304.5,116.5C 307.323,115.008 308.99,112.674 309.5,109.5C 312.799,105.507 315.799,101.173 318.5,96.5C 322.262,93.0711 325.262,89.0711 327.5,84.5C 328.926,80.1608 331.26,76.4942 334.5,73.5C 336.669,71.6597 338.002,69.3263 338.5,66.5C 339.167,66.5 339.5,66.1667 339.5,65.5C 340.5,65.5 341.5,65.5 342.5,65.5C 342.017,61.4231 343.684,59.0897 347.5,58.5C 348.782,53.2692 351.115,48.6025 354.5,44.5C 354.989,41.676 356.656,40.3426 359.5,40.5C 359.351,41.552 359.517,42.552 360,43.5C 392.575,91.382 425.075,139.049 457.5,186.5 Z"/></g>
<g><path style="opacity:1" fill="#dd888a" d="M 443.5,43.5 C 445.898,43.2594 447.898,43.9261 449.5,45.5C 447.102,45.7406 445.102,45.0739 443.5,43.5 Z"/></g>
<g><path style="opacity:0.918" fill="#d87375" d="M 206.5,43.5 C 201.851,47.497 196.518,50.497 190.5,52.5C 194.904,47.9617 200.237,44.9617 206.5,43.5 Z"/></g>
<g><path style="opacity:1" fill="#e8abac" d="M 263.5,45.5 C 259.813,48.44 255.48,50.1067 250.5,50.5C 254.269,47.6826 258.603,46.0159 263.5,45.5 Z"/></g>
<g><path style="opacity:1" fill="#eab6b7" d="M 462.5,49.5 C 465.272,49.7587 467.605,50.7587 469.5,52.5C 466.728,52.2413 464.395,51.2413 462.5,49.5 Z"/></g>
<g><path style="opacity:0.51" fill="#e19294" d="M 515.5,46.5 C 518.245,47.6162 521.078,48.6162 524,49.5C 525.749,50.4098 526.916,51.7431 527.5,53.5C 524.536,51.7702 521.369,50.4368 518,49.5C 516.69,48.8699 515.856,47.8699 515.5,46.5 Z"/></g>
<g><path style="opacity:1" fill="#edbcbd" d="M 248.5,50.5 C 245.912,53.3312 242.579,54.6645 238.5,54.5C 240.382,53.2488 242.382,52.0821 244.5,51C 245.793,50.51 247.127,50.3433 248.5,50.5 Z"/></g>
<g><path style="opacity:1" fill="#dd888a" d="M 474.5,53.5 C 479.425,54.3572 483.758,56.3572 487.5,59.5C 482.919,57.8701 478.586,55.8701 474.5,53.5 Z"/></g>
<g><path style="opacity:1" fill="#ecb8b9" d="M 238.5,54.5 C 235.267,57.6975 231.267,59.3642 226.5,59.5C 229.972,56.8427 233.972,55.176 238.5,54.5 Z"/></g>
<g><path style="opacity:0.91" fill="#da797a" d="M 530.5,55.5 C 531.978,55.238 533.311,55.5713 534.5,56.5C 536.586,57.4887 538.253,58.822 539.5,60.5C 535.67,60.1294 532.67,58.4628 530.5,55.5 Z"/></g>
<g><path style="opacity:1" fill="#dd8688" d="M 489.5,59.5 C 494.571,60.7859 498.904,63.1193 502.5,66.5C 497.708,64.707 493.375,62.3737 489.5,59.5 Z"/></g>
<g><path style="opacity:1" fill="#e9b0b1" d="M 226.5,59.5 C 223.996,62.6427 220.663,64.3094 216.5,64.5C 219.004,61.3573 222.337,59.6906 226.5,59.5 Z"/></g>
<g><path style="opacity:0.573" fill="#e59ea0" d="M 539.5,60.5 C 543.966,62.1386 548.3,64.1386 552.5,66.5C 553.127,67.4168 553.461,68.4168 553.5,69.5C 548.285,67.2721 543.618,64.2721 539.5,60.5 Z"/></g>
<g><path style="opacity:1" fill="#82a586" d="M 354.5,44.5 C 351.115,48.6025 348.782,53.2692 347.5,58.5C 343.684,59.0897 342.017,61.4231 342.5,65.5C 341.5,65.5 340.5,65.5 339.5,65.5C 342.504,59.4855 346.004,53.8188 350,48.5C 351.049,46.6156 352.549,45.2823 354.5,44.5 Z"/></g>
<g><path style="opacity:1" fill="#e19596" d="M 214.5,64.5 C 212.241,67.4095 209.241,69.0761 205.5,69.5C 208.178,67.5433 211.178,65.8766 214.5,64.5 Z"/></g>
<g><path style="opacity:1" fill="#97b49b" d="M 338.5,66.5 C 338.002,69.3263 336.669,71.6597 334.5,73.5C 335.079,70.6689 336.412,68.3356 338.5,66.5 Z"/></g>
<g><path style="opacity:0.808" fill="#db7d7f" d="M 179.5,57.5 C 177.28,60.287 174.614,62.6203 171.5,64.5C 165.984,66.753 160.984,69.753 156.5,73.5C 158.097,71.2361 160.097,69.2361 162.5,67.5C 167.809,63.515 173.475,60.1816 179.5,57.5 Z"/></g>
<g><path style="opacity:1" fill="#e39d9e" d="M 205.5,69.5 C 203.394,71.1217 201.061,72.455 198.5,73.5C 200.027,70.9321 202.361,69.5988 205.5,69.5 Z"/></g>
<g><path style="opacity:0.663" fill="#de8c8d" d="M 553.5,69.5 C 556.546,69.1826 558.213,70.5159 558.5,73.5C 556.52,72.5161 554.853,71.1827 553.5,69.5 Z"/></g>
<g><path style="opacity:0.882" fill="#dd8587" d="M 154.5,73.5 C 154.489,75.0174 153.823,76.1841 152.5,77C 150.261,78.4179 147.928,79.5846 145.5,80.5C 147.383,78.5503 149.383,76.5503 151.5,74.5C 152.417,73.8728 153.417,73.5394 154.5,73.5 Z"/></g>
<g><path style="opacity:1" fill="#e6a4a5" d="M 197.5,73.5 C 192.368,77.9601 186.701,81.6268 180.5,84.5C 185.429,79.7704 191.095,76.1037 197.5,73.5 Z"/></g>
<g><path style="opacity:1" fill="#edbabb" d="M 524.5,77.5 C 527.127,77.7903 528.794,79.1236 529.5,81.5C 526.931,81.2623 525.265,79.929 524.5,77.5 Z"/></g>
<g><path style="opacity:0.616" fill="#e6a4a6" d="M 145.5,80.5 C 143.833,82.1667 142.167,83.8333 140.5,85.5C 139.833,85.5 139.167,85.5 138.5,85.5C 140.237,83.1099 142.571,81.4433 145.5,80.5 Z"/></g>
<g><path style="opacity:0.843" fill="#d66f72" d="M 138.5,85.5 C 139.167,85.5 139.833,85.5 140.5,85.5C 137.149,88.8482 133.482,91.8482 129.5,94.5C 132.167,91.1667 135.167,88.1667 138.5,85.5 Z"/></g>
<g><path style="opacity:1" fill="#9ab79e" d="M 327.5,84.5 C 325.262,89.0711 322.262,93.0711 318.5,96.5C 320.397,91.6123 323.397,87.6123 327.5,84.5 Z"/></g>
<g><path style="opacity:1" fill="#efc3c4" d="M 172.5,89.5 C 168.696,94.0359 164.03,97.3692 158.5,99.5C 159.29,98.2058 160.29,97.0391 161.5,96C 165.062,93.5668 168.729,91.4001 172.5,89.5 Z"/></g>
<g><path style="opacity:0.604" fill="#e19496" d="M 586.5,94.5 C 587.5,94.5 588.5,94.5 589.5,94.5C 590.241,96.3542 591.241,98.0209 592.5,99.5C 589.623,98.8098 587.623,97.1431 586.5,94.5 Z"/></g>
<g><path style="opacity:0.952" fill="#d46567" d="M 592.5,99.5 C 596.79,102.491 600.457,106.158 603.5,110.5C 597.316,109.26 593.649,105.593 592.5,99.5 Z"/></g>
<g><path style="opacity:1" fill="#efc5c5" d="M 151.5,105.5 C 150.972,106.721 150.305,107.887 149.5,109C 147.261,110.418 144.928,111.585 142.5,112.5C 144.922,109.409 147.922,107.076 151.5,105.5 Z"/></g>
<g><path style="opacity:1" fill="#abc3ae" d="M 309.5,109.5 C 308.99,112.674 307.323,115.008 304.5,116.5C 305.786,113.883 307.453,111.55 309.5,109.5 Z"/></g>
<g><path style="opacity:1" fill="#e4a0a2" d="M 142.5,112.5 C 141.415,114.587 139.749,115.92 137.5,116.5C 138.585,114.413 140.251,113.08 142.5,112.5 Z"/></g>
<g><path style="opacity:0.333" fill="#f9e6e7" d="M 589.5,94.5 C 591.595,95.412 593.595,96.5787 595.5,98C 604.92,106.524 613.587,115.691 621.5,125.5C 620.391,125.443 619.391,125.11 618.5,124.5C 613.807,119.473 608.807,114.806 603.5,110.5C 600.457,106.158 596.79,102.491 592.5,99.5C 591.241,98.0209 590.241,96.3542 589.5,94.5 Z"/></g>
<g><path style="opacity:0.996" fill="#a5bea8" d="M 304.5,117.5 C 303.876,119.754 302.543,121.421 300.5,122.5C 301.136,120.205 302.469,118.539 304.5,117.5 Z"/></g>
<g><path style="opacity:0.034" fill="#fefffe" d="M 621.5,125.5 C 623.914,126.911 625.581,128.911 626.5,131.5C 625.167,130.833 623.833,130.167 622.5,129.5C 622.167,128.167 621.833,126.833 621.5,125.5 Z"/></g>
<g><path style="opacity:1" fill="#e19597" d="M 129.5,124.5 C 128.167,126.5 126.5,128.167 124.5,129.5C 125.167,126.833 126.833,125.167 129.5,124.5 Z"/></g>
<g><path style="opacity:0.996" fill="#b3c8b6" d="M 300.5,122.5 C 299.994,125.671 298.328,128.004 295.5,129.5C 296.852,126.835 298.518,124.502 300.5,122.5 Z"/></g>
<g><path style="opacity:0.376" fill="#e7a6a7" d="M 618.5,124.5 C 619.391,125.11 620.391,125.443 621.5,125.5C 621.833,126.833 622.167,128.167 622.5,129.5C 620.613,128.344 619.279,126.677 618.5,124.5 Z"/></g>
<g><path style="opacity:1" fill="#efc1c1" d="M 124.5,129.5 C 123.766,130.708 123.433,132.041 123.5,133.5C 122.5,133.5 121.5,133.5 120.5,133.5C 121.167,131.5 122.5,130.167 124.5,129.5 Z"/></g>
<g><path style="opacity:0.239" fill="#e8b0b1" d="M 622.5,129.5 C 623.833,130.167 625.167,130.833 626.5,131.5C 626.5,132.167 626.5,132.833 626.5,133.5C 623.5,133.833 622.167,132.5 622.5,129.5 Z"/></g>
<g><path style="opacity:1" fill="#8bac8f" d="M 359.5,130.5 C 359.378,133.292 358.044,135.292 355.5,136.5C 356.449,134.223 357.782,132.223 359.5,130.5 Z"/></g>
<g><path style="opacity:0.074" fill="#fcf3f3" d="M 251.5,23.5 C 251.5,24.1667 251.5,24.8333 251.5,25.5C 250.833,25.5 250.167,25.5 249.5,25.5C 246.438,25.8442 243.438,26.5109 240.5,27.5C 239.007,28.1411 238.007,29.1411 237.5,30.5C 233.167,31.8333 228.833,33.1667 224.5,34.5C 219.309,36.0974 214.642,38.4307 210.5,41.5C 208.938,41.7329 207.605,42.3995 206.5,43.5C 200.237,44.9617 194.904,47.9617 190.5,52.5C 186.413,53.3441 182.746,55.0108 179.5,57.5C 173.475,60.1816 167.809,63.515 162.5,67.5C 160.097,69.2361 158.097,71.2361 156.5,73.5C 155.833,73.5 155.167,73.5 154.5,73.5C 153.417,73.5394 152.417,73.8728 151.5,74.5C 149.383,76.5503 147.383,78.5503 145.5,80.5C 142.571,81.4433 140.237,83.1099 138.5,85.5C 135.167,88.1667 132.167,91.1667 129.5,94.5C 126.985,95.2631 124.985,96.7631 123.5,99C 122.552,99.4828 121.552,99.6495 120.5,99.5C 120.649,100.552 120.483,101.552 120,102.5C 112.457,109.372 104.957,116.372 97.5,123.5C 93.7225,128.854 89.7225,133.854 85.5,138.5C 84.2652,138.721 83.2652,139.388 82.5,140.5C 81.3998,143.042 80.0664,145.375 78.5,147.5C 75.2025,151.151 72.2025,155.151 69.5,159.5C 68.2652,159.721 67.2652,160.388 66.5,161.5C 65.35,163.763 64.35,166.096 63.5,168.5C 61.6542,170.179 59.9876,172.012 58.5,174C 56.3535,178.458 54.3535,182.958 52.5,187.5C 50.8656,189.285 49.5323,191.285 48.5,193.5C 45.576,195.67 43.9093,198.67 43.5,202.5C 41.6979,205.299 40.3646,208.299 39.5,211.5C 36.576,213.67 34.9093,216.67 34.5,220.5C 34.5,221.5 34.5,222.5 34.5,223.5C 30.9893,227.409 28.6559,232.076 27.5,237.5C 27.5,238.833 27.5,240.167 27.5,241.5C 25.9054,243.111 24.7388,245.111 24,247.5C 23.51,248.793 23.3433,250.127 23.5,251.5C 21.643,253.282 20.643,255.615 20.5,258.5C 20.5,259.5 20.5,260.5 20.5,261.5C 19.8826,261.611 19.3826,261.944 19,262.5C 18.5034,264.81 18.3367,267.143 18.5,269.5C 16.9054,271.111 15.7388,273.111 15,275.5C 13.398,281.008 12.2314,286.674 11.5,292.5C 10.5966,299.138 9.92996,305.804 9.5,312.5C 7.63105,314.635 6.96438,317.302 7.5,320.5C 6.88258,320.611 6.38258,320.944 6,321.5C 5.83333,334.667 5.66667,347.833 5.5,361C 5.50079,374.517 6.16745,387.684 7.5,400.5C 8.4731,408.464 9.80643,416.131 11.5,423.5C 11.5,425.167 11.5,426.833 11.5,428.5C 11.842,436.726 13.842,444.393 17.5,451.5C 17.6614,454.68 18.6614,457.347 20.5,459.5C 21.7395,466.268 23.4062,472.935 25.5,479.5C 25.735,485.912 28.0683,491.245 32.5,495.5C 32.6941,498.33 33.3608,500.996 34.5,503.5C 35.0742,506.321 36.4076,508.654 38.5,510.5C 39.1225,513.93 40.7892,516.596 43.5,518.5C 43.5,519.167 43.5,519.833 43.5,520.5C 43.9093,524.33 45.576,527.33 48.5,529.5C 49.9765,532.586 51.6432,535.586 53.5,538.5C 53.354,541.554 54.6874,543.554 57.5,544.5C 60.3333,548.581 62.6666,552.914 64.5,557.5C 65.1902,560.377 66.8569,562.377 69.5,563.5C 69.7377,566.069 71.071,567.735 73.5,568.5C 74.5314,572.114 76.6981,574.78 80,576.5C 82.6667,580.5 85.3333,584.5 88,588.5C 94.3326,596.331 101.166,603.665 108.5,610.5C 110.533,612.868 112.867,614.868 115.5,616.5C 125.591,626.926 136.591,636.259 148.5,644.5C 150.034,646.369 152.034,647.702 154.5,648.5C 156.863,650.501 159.196,652.501 161.5,654.5C 163.205,656.192 165.205,657.525 167.5,658.5C 167.833,658.5 168.167,658.5 168.5,658.5C 170.224,660.875 172.557,662.541 175.5,663.5C 178.421,665.338 181.421,667.004 184.5,668.5C 184.5,669.167 184.833,669.5 185.5,669.5C 187.738,671.632 190.405,673.298 193.5,674.5C 195.737,675.449 198.071,676.116 200.5,676.5C 202.67,679.424 205.67,681.091 209.5,681.5C 216.715,684.803 224.049,687.803 231.5,690.5C 235.355,692.906 239.688,694.573 244.5,695.5C 245.5,695.5 246.5,695.5 247.5,695.5C 250.641,697.774 254.308,699.108 258.5,699.5C 261.917,702.136 265.917,703.803 270.5,704.5C 279.096,706.262 287.763,707.595 296.5,708.5C 300.369,710.439 304.703,711.439 309.5,711.5C 312.5,711.5 315.5,711.5 318.5,711.5C 318.918,712.222 319.584,712.722 320.5,713C 323.482,713.498 326.482,713.665 329.5,713.5C 350.833,713.5 372.167,713.5 393.5,713.5C 399.569,713.307 405.236,712.307 410.5,710.5C 415.627,708.982 420.96,708.149 426.5,708C 427.056,707.617 427.389,707.117 427.5,706.5C 429.5,706.5 431.5,706.5 433.5,706.5C 435.483,706.843 436.817,706.176 437.5,704.5C 438.833,704.5 440.167,704.5 441.5,704.5C 444.984,704.323 447.984,703.323 450.5,701.5C 455.517,699.997 460.517,698.663 465.5,697.5C 470.483,697.102 474.816,695.435 478.5,692.5C 483.347,690.497 488.347,688.83 493.5,687.5C 497.135,686.202 500.135,684.202 502.5,681.5C 503.5,681.5 504.5,681.5 505.5,681.5C 510.651,680.428 514.985,678.095 518.5,674.5C 518.833,674.5 519.167,674.5 519.5,674.5C 521.262,674.643 522.929,674.309 524.5,673.5C 527.733,670.471 531.067,667.804 534.5,665.5C 541.43,662.195 547.763,658.195 553.5,653.5C 556.522,653.658 558.522,652.325 559.5,649.5C 560.167,649.5 560.5,649.167 560.5,648.5C 563.554,648.646 565.554,647.313 566.5,644.5C 566.833,644.5 567.167,644.5 567.5,644.5C 571.445,641.714 575.112,638.714 578.5,635.5C 582.487,631.863 586.82,628.53 591.5,625.5C 592.934,624.412 593.934,623.078 594.5,621.5C 597.063,621.269 598.73,619.935 599.5,617.5C 600.551,616.778 601.218,615.778 601.5,614.5C 605.14,614.525 607.473,612.858 608.5,609.5C 614.291,603.144 619.958,596.477 625.5,589.5C 628.908,586.759 631.575,583.426 633.5,579.5C 633.833,578.833 634.167,578.167 634.5,577.5C 639.269,573.727 642.936,569.061 645.5,563.5C 648.833,561.34 651.166,558.34 652.5,554.5C 653.99,552.419 654.99,550.086 655.5,547.5C 658.961,543.142 661.961,538.475 664.5,533.5C 664.5,532.833 664.5,532.167 664.5,531.5C 666.074,531.063 667.241,530.063 668,528.5C 670.504,524.823 672.337,520.823 673.5,516.5C 673.5,516.167 673.5,515.833 673.5,515.5C 676.2,511.797 678.7,507.797 681,503.5C 682.619,496.94 684.785,490.607 687.5,484.5C 687.5,483.833 687.5,483.167 687.5,482.5C 689.046,478.909 690.712,475.242 692.5,471.5C 694.755,460.912 697.422,450.578 700.5,440.5C 701.117,440.389 701.617,440.056 702,439.5C 702.642,435.509 703.142,431.509 703.5,427.5C 703.5,424.5 703.5,421.5 703.5,418.5C 704.117,418.389 704.617,418.056 705,417.5C 705.089,413.972 705.756,410.638 707,407.5C 707.498,404.183 707.665,400.85 707.5,397.5C 708.222,397.082 708.722,396.416 709,395.5C 709.667,372.833 709.667,350.167 709,327.5C 708.722,326.584 708.222,325.918 707.5,325.5C 707.268,318.78 706.602,312.113 705.5,305.5C 705.88,303.302 705.213,301.635 703.5,300.5C 703.5,298.833 703.5,297.167 703.5,295.5C 702.648,288.423 701.315,281.423 699.5,274.5C 698.999,272.345 697.999,270.678 696.5,269.5C 696.5,268.5 696.5,267.5 696.5,266.5C 696.251,263.998 695.917,261.498 695.5,259C 695.392,257.319 694.725,256.152 693.5,255.5C 692.129,250.072 690.129,245.072 687.5,240.5C 687.737,239.209 687.404,238.209 686.5,237.5C 686.11,234.017 685.11,230.684 683.5,227.5C 682.943,225.668 681.943,224.335 680.5,223.5C 680.294,220.762 679.294,218.428 677.5,216.5C 677.975,213.918 677.308,211.918 675.5,210.5C 675.169,208.678 674.502,207.011 673.5,205.5C 672.568,201.952 670.902,198.952 668.5,196.5C 667.232,193.57 665.566,190.903 663.5,188.5C 663.646,185.446 662.313,183.446 659.5,182.5C 658.523,180.179 657.523,177.846 656.5,175.5C 656.262,172.931 654.929,171.265 652.5,170.5C 651.35,168.603 650.35,166.603 649.5,164.5C 649.262,161.931 647.929,160.265 645.5,159.5C 639.497,150.511 633.163,141.844 626.5,133.5C 626.5,132.833 626.5,132.167 626.5,131.5C 628.149,132.714 629.815,134.047 631.5,135.5C 676.097,191.168 702.597,254.501 711,325.5C 720.079,443.622 681.913,543.455 596.5,625C 550.496,665.903 497.496,693.569 437.5,708C 331.631,730.268 234.631,710.601 146.5,649C 62.5183,583.926 15.0183,498.426 4,392.5C -3.68766,261.411 43.8123,155.578 146.5,75C 161.994,64.1683 177.994,54.1683 194.5,45C 206.851,39.8768 219.185,34.5435 231.5,29C 238.044,26.4176 244.711,24.5843 251.5,23.5 Z"/></g>
<g><path style="opacity:1" fill="#a5bfa9" d="M 135.5,363.5 C 135.002,366.326 133.669,368.66 131.5,370.5C 132.079,367.669 133.412,365.336 135.5,363.5 Z"/></g>
<g><path style="opacity:1" fill="#a6bfa9" d="M 200.5,359.5 C 198.892,363.414 196.559,366.747 193.5,369.5C 195.112,365.579 197.445,362.246 200.5,359.5 Z"/></g>
<g><path style="opacity:1" fill="#9db8a0" d="M 205.5,352.5 C 204.189,355.135 202.522,357.469 200.5,359.5C 201.069,356.281 202.736,353.948 205.5,352.5 Z"/></g>
<g><path style="opacity:1" fill="#a1bca5" d="M 374.5,349.5 C 376.073,355.544 375.573,361.544 373,367.5C 371.961,368.71 370.794,369.71 369.5,370.5C 370.714,367.07 372.214,363.736 374,360.5C 374.499,356.848 374.665,353.182 374.5,349.5 Z"/></g>
<g><path style="opacity:1" fill="#c0d2c2" d="M 332.5,343.5 C 329.996,348.795 328.996,354.462 329.5,360.5C 328.189,356.317 328.189,351.984 329.5,347.5C 330.057,345.668 331.057,344.335 332.5,343.5 Z"/></g>
<g><path style="opacity:1" fill="#a1bca5" d="M 498.5,350.5 C 495.09,354.238 491.09,357.238 486.5,359.5C 488.828,356.801 491.494,354.301 494.5,352C 495.745,351.209 497.078,350.709 498.5,350.5 Z"/></g>
<g><path style="opacity:0.996" fill="#9bb79e" d="M 147.5,347.5 C 146.246,350.75 144.246,353.417 141.5,355.5C 142.782,352.228 144.782,349.562 147.5,347.5 Z"/></g>
<g><path style="opacity:0.478" fill="#f1cecf" d="M 7.5,320.5 C 6.75638,324.119 6.42305,327.785 6.5,331.5C 6.5,349.5 6.5,367.5 6.5,385.5C 6.41262,390.537 6.74595,395.537 7.5,400.5C 6.16745,387.684 5.50079,374.517 5.5,361C 5.66667,347.833 5.83333,334.667 6,321.5C 6.38258,320.944 6.88258,320.611 7.5,320.5 Z"/></g>
<g><path style="opacity:0.996" fill="#acc4af" d="M 152.5,339.5 C 151.89,340.391 151.557,341.391 151.5,342.5C 150.5,344.167 149.167,345.5 147.5,346.5C 148.852,343.835 150.518,341.502 152.5,339.5 Z"/></g>
<g><path style="opacity:1" fill="#f2cfd0" d="M 31.5,320.5 C 30.5435,342.474 30.2101,364.474 30.5,386.5C 30.1667,386.5 29.8333,386.5 29.5,386.5C 28.9258,380.516 28.5925,374.516 28.5,368.5C 28.3649,356.815 28.6983,345.148 29.5,333.5C 28.9031,328.706 29.5698,324.373 31.5,320.5 Z"/></g>
<g><path style="opacity:1" fill="#da7e81" d="M 29.5,333.5 C 28.6983,345.148 28.3649,356.815 28.5,368.5C 27.341,357.674 27.1743,346.674 28,335.5C 28.2784,334.584 28.7784,333.918 29.5,333.5 Z"/></g>
<g><path style="opacity:1" fill="#709975" d="M 272.5,339.5 C 252.598,340.178 232.598,340.845 212.5,341.5C 232.139,339.512 252.139,338.845 272.5,339.5 Z"/></g>
<g><path style="opacity:1" fill="#f3d3d3" d="M 681.5,311.5 C 681.833,311.5 682.167,311.5 682.5,311.5C 682.5,312.167 682.5,312.833 682.5,313.5C 682.936,321.708 683.936,329.708 685.5,337.5C 686.833,354.5 686.833,371.5 685.5,388.5C 684.833,390.5 684.167,392.5 683.5,394.5C 684.553,376.18 684.719,357.847 684,339.5C 682.535,330.222 681.702,320.888 681.5,311.5 Z"/></g>
<g><path style="opacity:1" fill="#a5bea8" d="M 281.5,326.5 C 279.471,329.704 277.637,333.037 276,336.5C 274.961,337.71 273.794,338.71 272.5,339.5C 274.353,334.323 277.353,329.99 281.5,326.5 Z"/></g>
<g><path style="opacity:1" fill="#487c4f" d="M 374.5,349.5 C 374.665,353.182 374.499,356.848 374,360.5C 372.214,363.736 370.714,367.07 369.5,370.5C 367.36,372.458 365.027,374.125 362.5,375.5C 354.205,377.317 346.205,376.65 338.5,373.5C 337.206,372.71 336.039,371.71 335,370.5C 332.909,367.26 331.076,363.926 329.5,360.5C 328.996,354.462 329.996,348.795 332.5,343.5C 334.303,341.519 335.97,339.352 337.5,337C 338.974,335.684 340.641,334.684 342.5,334C 354.257,330.928 364.09,333.762 372,342.5C 372.991,344.808 373.824,347.141 374.5,349.5 Z"/></g>
<g><path style="opacity:0.996" fill="#6a9470" d="M 165.5,320.5 C 162.846,329.12 158.18,336.453 151.5,342.5C 151.557,341.391 151.89,340.391 152.5,339.5C 157.01,333.341 161.344,327.007 165.5,320.5 Z"/></g>
<g><path style="opacity:1" fill="#e49fa0" d="M 682.5,313.5 C 683.268,314.263 683.768,315.263 684,316.5C 684.577,323.5 685.077,330.5 685.5,337.5C 683.936,329.708 682.936,321.708 682.5,313.5 Z"/></g>
<g><path style="opacity:0.757" fill="#e5a2a5" d="M 9.5,312.5 C 8.85048,314.435 8.51715,316.435 8.5,318.5C 8.5,320.5 8.5,322.5 8.5,324.5C 7.83333,326.833 7.16667,329.167 6.5,331.5C 6.42305,327.785 6.75638,324.119 7.5,320.5C 6.96438,317.302 7.63105,314.635 9.5,312.5 Z"/></g>
<g><path style="opacity:1" fill="#a9c2ad" d="M 288.5,315.5 C 287.374,319.954 285.041,323.621 281.5,326.5C 283.091,322.308 285.424,318.641 288.5,315.5 Z"/></g>
<g><path style="opacity:0.612" fill="#d9787a" d="M 701.5,295.5 C 702.167,295.5 702.833,295.5 703.5,295.5C 703.5,297.167 703.5,298.833 703.5,300.5C 703.12,302.698 703.787,304.365 705.5,305.5C 706.602,312.113 707.268,318.78 707.5,325.5C 707.505,329.534 707.838,333.534 708.5,337.5C 707.778,337.082 707.278,336.416 707,335.5C 705.698,322.033 703.865,308.7 701.5,295.5 Z"/></g>
<g><path style="opacity:1" fill="#de8a8d" d="M 680.5,301.5 C 681.222,301.918 681.722,302.584 682,303.5C 682.497,306.146 682.664,308.813 682.5,311.5C 682.167,311.5 681.833,311.5 681.5,311.5C 681.5,310.833 681.5,310.167 681.5,309.5C 681.167,306.833 680.833,304.167 680.5,301.5 Z"/></g>
<g><path style="opacity:1" fill="#f2cfd0" d="M 676.5,285.5 C 676.833,285.5 677.167,285.5 677.5,285.5C 679.112,290.722 680.112,296.055 680.5,301.5C 680.833,304.167 681.167,306.833 681.5,309.5C 680.883,309.389 680.383,309.056 680,308.5C 678.289,300.941 677.122,293.275 676.5,285.5 Z"/></g>
<g><path style="opacity:1" fill="#e29698" d="M 36.5,290.5 C 35.99,296.143 34.6566,301.477 32.5,306.5C 32.849,301.433 33.6823,296.433 35,291.5C 35.3826,290.944 35.8826,290.611 36.5,290.5 Z"/></g>
<g><path style="opacity:0.996" fill="#769d7b" d="M 184.5,292.5 C 183.672,296.154 182.172,299.487 180,302.5C 176.399,308.402 172.233,313.735 167.5,318.5C 172.426,309.279 178.092,300.612 184.5,292.5 Z"/></g>
<g><path style="opacity:0.824" fill="#e7a9aa" d="M 703.5,300.5 C 705.213,301.635 705.88,303.302 705.5,305.5C 703.787,304.365 703.12,302.698 703.5,300.5 Z"/></g>
<g><path style="opacity:1" fill="#abc3af" d="M 299.5,300.5 C 298.92,302.749 297.587,304.415 295.5,305.5C 296.08,303.251 297.413,301.585 299.5,300.5 Z"/></g>
<g><path style="opacity:0.731" fill="#d9797c" d="M 13.5,290.5 C 12.0371,299.462 10.8704,308.462 10,317.5C 9.61742,318.056 9.11742,318.389 8.5,318.5C 8.51715,316.435 8.85048,314.435 9.5,312.5C 9.92996,305.804 10.5966,299.138 11.5,292.5C 12.1667,291.833 12.8333,291.167 13.5,290.5 Z"/></g>
<g><path style="opacity:1" fill="#68936e" d="M 246.5,294.5 C 265.167,294.5 283.833,294.5 302.5,294.5C 302.573,296.027 301.906,297.027 300.5,297.5C 282.69,295.838 264.69,294.838 246.5,294.5 Z"/></g>
<g><path style="opacity:1" fill="#ccdace" d="M 250.5,287.5 C 250.672,289.492 250.005,291.158 248.5,292.5C 266.662,293.167 284.662,293.833 302.5,294.5C 283.833,294.5 265.167,294.5 246.5,294.5C 246.898,291.576 248.231,289.242 250.5,287.5 Z"/></g>
<g><path style="opacity:0.996" fill="#a6bfa9" d="M 189.5,285.5 C 188.57,288.397 186.903,290.73 184.5,292.5C 185.443,289.571 187.11,287.237 189.5,285.5 Z"/></g>
<g><path style="opacity:1" fill="#e4a1a2" d="M 38.5,281.5 C 38.8799,283.698 38.2132,285.365 36.5,286.5C 36.1201,284.302 36.7868,282.635 38.5,281.5 Z"/></g>
<g><path style="opacity:1" fill="#bfd1c1" d="M 258.5,276.5 C 256.421,279.12 255.087,282.12 254.5,285.5C 253.423,286.705 252.09,287.372 250.5,287.5C 252.467,283.196 255.133,279.529 258.5,276.5 Z"/></g>
<g><path style="opacity:0.992" fill="#93b197" d="M 195.5,277.5 C 194.92,279.749 193.587,281.415 191.5,282.5C 192.08,280.251 193.413,278.585 195.5,277.5 Z"/></g>
<g><path style="opacity:1" fill="#da7f82" d="M 675.5,278.5 C 676.117,278.611 676.617,278.944 677,279.5C 677.495,281.473 677.662,283.473 677.5,285.5C 677.167,285.5 676.833,285.5 676.5,285.5C 676.552,283.097 676.219,280.764 675.5,278.5 Z"/></g>
<g><path style="opacity:0.573" fill="#e7a7a9" d="M 18.5,269.5 C 16.4707,276.469 14.8041,283.469 13.5,290.5C 12.8333,291.167 12.1667,291.833 11.5,292.5C 12.2314,286.674 13.398,281.008 15,275.5C 15.7388,273.111 16.9054,271.111 18.5,269.5 Z"/></g>
<g><path style="opacity:0.29" fill="#e59ea0" d="M 696.5,269.5 C 697.999,270.678 698.999,272.345 699.5,274.5C 701.315,281.423 702.648,288.423 703.5,295.5C 702.833,295.5 702.167,295.5 701.5,295.5C 700.318,286.671 698.651,278.004 696.5,269.5 Z"/></g>
<g><path style="opacity:1" fill="#edc0c1" d="M 40.5,274.5 C 40.7406,276.898 40.0739,278.898 38.5,280.5C 38.2594,278.102 38.9261,276.102 40.5,274.5 Z"/></g>
<g><path style="opacity:1" fill="#a1bca5" d="M 265.5,266.5 C 263.65,270.211 261.316,273.544 258.5,276.5C 259.869,272.405 262.203,269.072 265.5,266.5 Z"/></g>
<g><path style="opacity:0.78" fill="#de8a8c" d="M 20.5,261.5 C 20.0372,264.33 19.3705,266.997 18.5,269.5C 18.3367,267.143 18.5034,264.81 19,262.5C 19.3826,261.944 19.8826,261.611 20.5,261.5 Z"/></g>
<g><path style="opacity:1" fill="#c0d2c2" d="M 272.5,256.5 C 270.065,259.374 268.731,262.707 268.5,266.5C 267.5,266.5 266.5,266.5 265.5,266.5C 266.874,262.391 269.208,259.057 272.5,256.5 Z"/></g>
<g><path style="opacity:0.984" fill="#93b297" d="M 208.5,257.5 C 207.355,259.712 206.355,262.045 205.5,264.5C 203.599,266.006 201.932,267.673 200.5,269.5C 202.398,264.945 205.065,260.945 208.5,257.5 Z"/></g>
<g><path style="opacity:1" fill="#efc8c9" d="M 47.5,251.5 C 47.3276,256.949 45.6609,261.616 42.5,265.5C 44.1702,260.772 45.8369,256.105 47.5,251.5 Z"/></g>
<g><path style="opacity:0.459" fill="#ebb7b8" d="M 693.5,255.5 C 694.725,256.152 695.392,257.319 695.5,259C 695.917,261.498 696.251,263.998 696.5,266.5C 695.883,266.389 695.383,266.056 695,265.5C 694.505,263.527 694.338,261.527 694.5,259.5C 694.167,258.167 693.833,256.833 693.5,255.5 Z"/></g>
<g><path style="opacity:1" fill="#e5a4a5" d="M 664.5,244.5 C 667.44,248.187 669.107,252.52 669.5,257.5C 667.072,253.593 665.405,249.26 664.5,244.5 Z"/></g>
<g><path style="opacity:1" fill="#c4d5c6" d="M 281.5,243.5 C 279.157,246.852 277.324,250.519 276,254.5C 275.329,255.252 274.496,255.586 273.5,255.5C 275.04,250.649 277.707,246.649 281.5,243.5 Z"/></g>
<g><path style="opacity:0.596" fill="#e49fa1" d="M 23.5,251.5 C 23.2413,254.272 22.2413,256.605 20.5,258.5C 20.643,255.615 21.643,253.282 23.5,251.5 Z"/></g>
<g><path style="opacity:0.988" fill="#82a586" d="M 217.5,244.5 C 216.632,248.572 214.632,251.905 211.5,254.5C 212.346,250.353 214.346,247.02 217.5,244.5 Z"/></g>
<g><path style="opacity:0.973" fill="#d66f71" d="M 27.5,241.5 C 27.1767,245.329 25.8434,248.662 23.5,251.5C 23.3433,250.127 23.51,248.793 24,247.5C 24.7388,245.111 25.9054,243.111 27.5,241.5 Z"/></g>
<g><path style="opacity:0.847" fill="#dd8587" d="M 687.5,240.5 C 690.129,245.072 692.129,250.072 693.5,255.5C 693.833,256.833 694.167,258.167 694.5,259.5C 691.169,253.664 688.836,247.331 687.5,240.5 Z"/></g>
<g><path style="opacity:1" fill="#f1cece" d="M 54.5,233.5 C 54.4889,235.547 54.1556,237.547 53.5,239.5C 52.2302,243.702 50.2302,247.369 47.5,250.5C 49.2732,244.566 51.6065,238.899 54.5,233.5 Z"/></g>
<g><path style="opacity:0.996" fill="#82a686" d="M 224.5,234.5 C 223.641,238.89 221.308,242.223 217.5,244.5C 219.38,240.846 221.713,237.513 224.5,234.5 Z"/></g>
<g><path style="opacity:1" fill="#a8c1ab" d="M 290.5,231.5 C 288.246,236.083 285.246,240.083 281.5,243.5C 283.397,238.612 286.397,234.612 290.5,231.5 Z"/></g>
<g><path style="opacity:1" fill="#91b094" d="M 443.5,230.5 C 442.856,233.804 440.856,235.138 437.5,234.5C 437.5,235.833 437.5,237.167 437.5,238.5C 436.212,236.965 436.212,235.299 437.5,233.5C 439.534,232.441 441.534,231.441 443.5,230.5 Z"/></g>
<g><path style="opacity:0.478" fill="#e5a3a4" d="M 34.5,223.5 C 33.5714,226.924 32.4047,230.258 31,233.5C 30.0513,235.093 28.8846,236.426 27.5,237.5C 28.6559,232.076 30.9893,227.409 34.5,223.5 Z"/></g>
<g><path style="opacity:1" fill="#9ab79e" d="M 487.5,231.5 C 489.914,232.911 491.581,234.911 492.5,237.5C 490.086,236.089 488.419,234.089 487.5,231.5 Z"/></g>
<g><path style="opacity:0.98" fill="#a6c0aa" d="M 228.5,228.5 C 227.762,230.94 226.429,232.94 224.5,234.5C 224.948,231.828 226.281,229.828 228.5,228.5 Z"/></g>
<g><path style="opacity:1" fill="#ecbbbb" d="M 653.5,219.5 C 657.25,225.113 660.417,231.113 663,237.5C 663.977,239.74 664.477,242.073 664.5,244.5C 661.836,238.394 658.669,232.394 655,226.5C 654.56,224.134 654.06,221.801 653.5,219.5 Z"/></g>
<g><path style="opacity:0.341" fill="#df8a8d" d="M 680.5,223.5 C 681.943,224.335 682.943,225.668 683.5,227.5C 685.11,230.684 686.11,234.017 686.5,237.5C 684.202,232.993 682.202,228.327 680.5,223.5 Z"/></g>
<g><path style="opacity:1" fill="#f0cacb" d="M 61.5,218.5 C 60.2802,224.136 57.9468,229.136 54.5,233.5C 56.28,228.12 58.6133,223.12 61.5,218.5 Z"/></g>
<g><path style="opacity:1" fill="#93b197" d="M 295.5,223.5 C 294.876,225.754 293.543,227.421 291.5,228.5C 292.136,226.205 293.469,224.539 295.5,223.5 Z"/></g>
<g><path style="opacity:0.988" fill="#a3bda7" d="M 234.5,218.5 C 234.002,221.326 232.669,223.66 230.5,225.5C 231.079,222.669 232.412,220.336 234.5,218.5 Z"/></g>
<g><path style="opacity:1" fill="#a3bda7" d="M 302.5,213.5 C 300.65,217.211 298.316,220.544 295.5,223.5C 296.869,219.405 299.203,216.072 302.5,213.5 Z"/></g>
<g><path style="opacity:1" fill="#96b399" d="M 470.5,212.5 C 466.376,215.863 462.043,219.03 457.5,222C 456.552,222.483 455.552,222.649 454.5,222.5C 459.218,218.252 464.551,214.918 470.5,212.5 Z"/></g>
<g><path style="opacity:0.741" fill="#e19193" d="M 675.5,210.5 C 677.308,211.918 677.975,213.918 677.5,216.5C 676.262,214.786 675.595,212.786 675.5,210.5 Z"/></g>
<g><path style="opacity:0.835" fill="#e49b9d" d="M 39.5,211.5 C 39.0761,215.241 37.4095,218.241 34.5,220.5C 34.9093,216.67 36.576,213.67 39.5,211.5 Z"/></g>
<g><path style="opacity:1" fill="#bccfbe" d="M 433.5,207.5 C 430.729,209.767 428.062,212.267 425.5,215C 424.5,215.167 423.5,215.333 422.5,215.5C 420.97,215.36 419.97,214.693 419.5,213.5C 420.15,213.804 420.817,214.137 421.5,214.5C 425.514,212.144 429.514,209.811 433.5,207.5 Z"/></g>
<g><path style="opacity:1" fill="#467b4d" d="M 487.5,231.5 C 488.419,234.089 490.086,236.089 492.5,237.5C 528.142,288.816 563.809,340.149 599.5,391.5C 600.08,393.749 601.413,395.415 603.5,396.5C 607.885,402.223 611.885,408.223 615.5,414.5C 616.08,416.749 617.413,418.415 619.5,419.5C 630.855,435.848 642.188,452.182 653.5,468.5C 653.733,470.062 654.4,471.395 655.5,472.5C 592.961,473.828 530.294,473.828 467.5,472.5C 466.206,471.71 465.039,470.71 464,469.5C 460.347,463.348 457.18,457.015 454.5,450.5C 454.241,447.728 453.241,445.395 451.5,443.5C 451.5,443.167 451.5,442.833 451.5,442.5C 448.582,428.443 448.915,414.443 452.5,400.5C 453.613,396.018 455.613,392.018 458.5,388.5C 461.758,384.225 465.092,379.892 468.5,375.5C 469.46,373.539 470.793,371.873 472.5,370.5C 473.873,370.657 475.207,370.49 476.5,370C 479.002,366.667 481.668,363.501 484.5,360.5C 484.842,359.662 485.508,359.328 486.5,359.5C 491.09,357.238 495.09,354.238 498.5,350.5C 501.816,348.842 505.15,347.175 508.5,345.5C 508.833,344.833 509.167,344.167 509.5,343.5C 508.469,341.618 507.635,339.618 507,337.5C 503.656,333.46 500.323,329.46 497,325.5C 492.989,317.473 487.989,310.14 482,303.5C 476.407,294.395 470.574,285.395 464.5,276.5C 463.094,275.049 461.594,273.716 460,272.5C 452.64,260.993 445.14,249.659 437.5,238.5C 437.5,237.167 437.5,235.833 437.5,234.5C 440.856,235.138 442.856,233.804 443.5,230.5C 447.212,227.772 450.878,225.106 454.5,222.5C 455.552,222.649 456.552,222.483 457.5,222C 462.043,219.03 466.376,215.863 470.5,212.5C 471.884,211.199 473.384,211.199 475,212.5C 479.398,218.722 483.565,225.055 487.5,231.5 Z"/></g>
<g><path style="opacity:0.98" fill="#a5bea8" d="M 244.5,205.5 C 242.908,209.09 240.575,212.09 237.5,214.5C 238.787,212.195 240.12,209.862 241.5,207.5C 242.265,206.388 243.265,205.721 244.5,205.5 Z"/></g>
<g><path style="opacity:1" fill="#ecb9b9" d="M 66.5,207.5 C 66.3042,211.75 64.6376,215.083 61.5,217.5C 63.1708,214.076 64.8374,210.743 66.5,207.5 Z"/></g>
<g><path style="opacity:1" fill="#e6a6a7" d="M 70.5,201.5 C 69.6597,203.853 68.3264,205.853 66.5,207.5C 66.6329,204.634 67.9662,202.634 70.5,201.5 Z"/></g>
<g><path style="opacity:1" fill="#a2bca6" d="M 440.5,202.5 C 438.73,204.903 436.397,206.57 433.5,207.5C 435.237,205.11 437.571,203.443 440.5,202.5 Z"/></g>
<g><path style="opacity:0.373" fill="#e4a0a1" d="M 668.5,196.5 C 670.902,198.952 672.568,201.952 673.5,205.5C 670.576,203.33 668.909,200.33 668.5,196.5 Z"/></g>
<g><path style="opacity:1" fill="#edbfc1" d="M 642.5,197.5 C 643.492,199.456 644.492,201.456 645.5,203.5C 643.025,202.313 642.025,200.313 642.5,197.5 Z"/></g>
<g><path style="opacity:0.58" fill="#e2999a" d="M 48.5,193.5 C 48.0761,197.241 46.4095,200.241 43.5,202.5C 43.9093,198.67 45.576,195.67 48.5,193.5 Z"/></g>
<g><path style="opacity:1" fill="#a8c0ab" d="M 457.5,186.5 C 458.613,187.946 458.78,189.613 458,191.5C 456.989,192.337 455.822,192.67 454.5,192.5C 456.972,191.358 457.972,189.358 457.5,186.5 Z"/></g>
<g><path style="opacity:0.984" fill="#a6bea9" d="M 258.5,184.5 C 257.762,186.94 256.429,188.94 254.5,190.5C 254.948,187.828 256.281,185.828 258.5,184.5 Z"/></g>
<g><path style="opacity:0.49" fill="#df8b8d" d="M 659.5,182.5 C 662.313,183.446 663.646,185.446 663.5,188.5C 661.262,187.147 659.929,185.147 659.5,182.5 Z"/></g>
<g><path style="opacity:1" fill="#f2cece" d="M 630.5,178.5 C 633.421,181.242 635.421,184.575 636.5,188.5C 633.223,185.899 631.223,182.565 630.5,178.5 Z"/></g>
<g><path style="opacity:1" fill="#bed0c1" d="M 327.5,178.5 C 325.249,182.043 323.083,185.71 321,189.5C 317.126,192.705 314.46,196.705 313,201.5C 311.039,204.463 308.706,207.129 306,209.5C 305.51,210.793 305.343,212.127 305.5,213.5C 304.5,213.5 303.5,213.5 302.5,213.5C 308.818,204.878 314.651,195.878 320,186.5C 322.049,183.326 324.549,180.659 327.5,178.5 Z"/></g>
<g><path style="opacity:1" fill="#e5a1a3" d="M 86.5,174.5 C 85.0438,179.293 82.3771,183.293 78.5,186.5C 80.3767,181.96 83.0433,177.96 86.5,174.5 Z"/></g>
<g><path style="opacity:0.263" fill="#e6a7a7" d="M 652.5,170.5 C 654.929,171.265 656.262,172.931 656.5,175.5C 654.457,174.421 653.124,172.754 652.5,170.5 Z"/></g>
<g><path style="opacity:1" fill="#9ebaa2" d="M 334.5,167.5 C 333.246,170.75 331.246,173.417 328.5,175.5C 329.782,172.228 331.782,169.562 334.5,167.5 Z"/></g>
<g><path style="opacity:1" fill="#eec0c1" d="M 92.5,166.5 C 92.3689,170.624 90.3689,173.291 86.5,174.5C 88.0461,171.368 90.0461,168.702 92.5,166.5 Z"/></g>
<g><path style="opacity:0.925" fill="#dc8081" d="M 69.5,159.5 C 63.5116,168.653 57.8449,177.986 52.5,187.5C 54.3535,182.958 56.3535,178.458 58.5,174C 59.9876,172.012 61.6542,170.179 63.5,168.5C 64.35,166.096 65.35,163.763 66.5,161.5C 67.2652,160.388 68.2652,159.721 69.5,159.5 Z"/></g>
<g><path style="opacity:1" fill="#e6a9aa" d="M 96.5,161.5 C 95.8763,163.754 94.543,165.421 92.5,166.5C 93.1355,164.205 94.4689,162.539 96.5,161.5 Z"/></g>
<g><path style="opacity:1" fill="#a7c0aa" d="M 344.5,152.5 C 342.256,158.244 338.923,163.244 334.5,167.5C 337.292,161.979 340.625,156.979 344.5,152.5 Z"/></g>
<g><path style="opacity:0.2" fill="#e5a5a6" d="M 645.5,159.5 C 647.929,160.265 649.262,161.931 649.5,164.5C 647.312,163.556 645.979,161.889 645.5,159.5 Z"/></g>
<g><path style="opacity:1" fill="#e39b9c" d="M 102.5,153.5 C 100.878,156.455 98.8777,159.122 96.5,161.5C 97.3528,157.98 99.3528,155.313 102.5,153.5 Z"/></g>
<g><path style="opacity:0.996" fill="#98b59c" d="M 283.5,147.5 C 283.108,149.179 282.608,150.846 282,152.5C 277.925,157.065 274.091,161.732 270.5,166.5C 271.64,164.22 272.807,161.886 274,159.5C 277.419,155.594 280.586,151.594 283.5,147.5 Z"/></g>
<g><path style="opacity:1" fill="#97b59b" d="M 348.5,147.5 C 348.021,149.889 346.688,151.556 344.5,152.5C 345.136,150.205 346.469,148.539 348.5,147.5 Z"/></g>
<g><path style="opacity:1" fill="#e7a8a9" d="M 112.5,142.5 C 110.248,146.423 107.248,149.756 103.5,152.5C 105.817,148.518 108.817,145.185 112.5,142.5 Z"/></g>
<g><path style="opacity:1" fill="#c6d6c8" d="M 369.5,141.5 C 372.316,144.456 374.65,147.789 376.5,151.5C 374.034,149.907 371.867,147.907 370,145.5C 369.51,144.207 369.343,142.873 369.5,141.5 Z"/></g>
<g><path style="opacity:0.992" fill="#a8c1ac" d="M 288.5,140.5 C 287.762,142.94 286.429,144.94 284.5,146.5C 284.948,143.828 286.281,141.828 288.5,140.5 Z"/></g>
<g><path style="opacity:1" fill="#a5bfa9" d="M 355.5,137.5 C 353.65,141.211 351.316,144.544 348.5,147.5C 349.869,143.405 352.203,140.072 355.5,137.5 Z"/></g>
<g><path style="opacity:1" fill="#ecbdbe" d="M 600.5,140.5 C 602.587,141.585 603.92,143.251 604.5,145.5C 602.413,144.415 601.08,142.749 600.5,140.5 Z"/></g>
<g><path style="opacity:0.859" fill="#de8687" d="M 85.5,138.5 C 84.279,142.385 81.9457,145.385 78.5,147.5C 80.0664,145.375 81.3998,143.042 82.5,140.5C 83.2652,139.388 84.2652,138.721 85.5,138.5 Z"/></g>
<g><path style="opacity:0.996" fill="#a8c1ab" d="M 293.5,133.5 C 292.189,136.135 290.522,138.469 288.5,140.5C 289.069,137.281 290.736,134.948 293.5,133.5 Z"/></g>
<g><path style="opacity:1" fill="#7a9f7e" d="M 484.5,360.5 C 481.668,363.501 479.002,366.667 476.5,370C 475.207,370.49 473.873,370.657 472.5,370.5C 475.91,366.42 479.91,363.086 484.5,360.5 Z"/></g>
<g><path style="opacity:0.83" fill="#d15e61" d="M 8.5,324.5 C 7.21855,345.51 7.21855,366.51 8.5,387.5C 7.83333,386.833 7.16667,386.167 6.5,385.5C 6.5,367.5 6.5,349.5 6.5,331.5C 7.16667,329.167 7.83333,326.833 8.5,324.5 Z"/></g>
<g><path style="opacity:0.358" fill="#e8acae" d="M 707.5,325.5 C 708.222,325.918 708.722,326.584 709,327.5C 709.667,350.167 709.667,372.833 709,395.5C 708.722,396.416 708.222,397.082 707.5,397.5C 707.5,394.167 707.5,390.833 707.5,387.5C 708.441,370.861 708.775,354.195 708.5,337.5C 707.838,333.534 707.505,329.534 707.5,325.5 Z"/></g>
<g><path style="opacity:1" fill="#7fa383" d="M 338.5,373.5 C 346.205,376.65 354.205,377.317 362.5,375.5C 362.389,376.117 362.056,376.617 361.5,377C 355.167,377.667 348.833,377.667 342.5,377C 340.676,376.34 339.343,375.173 338.5,373.5 Z"/></g>
<g><path style="opacity:1" fill="#a2bca5" d="M 191.5,372.5 C 189.65,376.211 187.316,379.544 184.5,382.5C 185.869,378.405 188.203,375.072 191.5,372.5 Z"/></g>
<g><path style="opacity:1" fill="#8dad91" d="M 468.5,375.5 C 465.092,379.892 461.758,384.225 458.5,388.5C 460.36,382.98 463.694,378.647 468.5,375.5 Z"/></g>
<g><path style="opacity:1" fill="#96b49b" d="M 124.5,381.5 C 123.876,383.754 122.543,385.421 120.5,386.5C 121.136,384.205 122.469,382.539 124.5,381.5 Z"/></g>
<g><path style="opacity:1" fill="#a1bca5" d="M 184.5,382.5 C 183.57,385.397 181.903,387.73 179.5,389.5C 180.443,386.571 182.11,384.237 184.5,382.5 Z"/></g>
<g><path style="opacity:1" fill="#abc3ae" d="M 383.5,388.5 C 363.5,388.5 343.5,388.5 323.5,388.5C 323.169,417.005 323.502,445.338 324.5,473.5C 324.5,473.833 324.5,474.167 324.5,474.5C 323.833,474.5 323.167,474.5 322.5,474.5C 322.5,445.5 322.5,416.5 322.5,387.5C 343.007,387.17 363.34,387.503 383.5,388.5 Z"/></g>
<g><path style="opacity:1" fill="#6f9874" d="M 383.5,388.5 C 383.5,388.833 383.5,389.167 383.5,389.5C 363.833,389.5 344.167,389.5 324.5,389.5C 324.5,417.5 324.5,445.5 324.5,473.5C 323.502,445.338 323.169,417.005 323.5,388.5C 343.5,388.5 363.5,388.5 383.5,388.5 Z"/></g>
<g><path style="opacity:1" fill="#457a4c" d="M 383.5,389.5 C 383.5,417.833 383.5,446.167 383.5,474.5C 363.833,474.5 344.167,474.5 324.5,474.5C 324.5,474.167 324.5,473.833 324.5,473.5C 324.5,445.5 324.5,417.5 324.5,389.5C 344.167,389.5 363.833,389.5 383.5,389.5 Z"/></g>
<g><path style="opacity:1" fill="#95b399" d="M 599.5,391.5 C 601.587,392.585 602.92,394.251 603.5,396.5C 601.413,395.415 600.08,393.749 599.5,391.5 Z"/></g>
<g><path style="opacity:1" fill="#e4a0a1" d="M 29.5,386.5 C 29.8333,386.5 30.1667,386.5 30.5,386.5C 30.5,386.833 30.5,387.167 30.5,387.5C 30.9157,392.493 31.2491,397.493 31.5,402.5C 29.9216,397.417 29.2549,392.084 29.5,386.5 Z"/></g>
<g><path style="opacity:1" fill="#f5dbdc" d="M 30.5,387.5 C 31.2216,387.918 31.7216,388.584 32,389.5C 32.6995,398.493 33.1995,407.493 33.5,416.5C 32.1985,412.057 31.5319,407.391 31.5,402.5C 31.2491,397.493 30.9157,392.493 30.5,387.5 Z"/></g>
<g><path style="opacity:1" fill="#e39ea0" d="M 685.5,388.5 C 685.638,393.414 684.972,398.081 683.5,402.5C 683.5,399.833 683.5,397.167 683.5,394.5C 684.167,392.5 684.833,390.5 685.5,388.5 Z"/></g>
<g><path style="opacity:0.565" fill="#e3999b" d="M 6.5,385.5 C 7.16667,386.167 7.83333,386.833 8.5,387.5C 8.85645,399.55 9.85645,411.55 11.5,423.5C 9.80643,416.131 8.4731,408.464 7.5,400.5C 6.74595,395.537 6.41262,390.537 6.5,385.5 Z"/></g>
<g><path style="opacity:1" fill="#a5bfa8" d="M 175.5,395.5 C 174.57,398.397 172.903,400.73 170.5,402.5C 171.443,399.571 173.11,397.237 175.5,395.5 Z"/></g>
<g><path style="opacity:1" fill="#fbfcfc" d="M 551.5,413.5 C 552.833,419.5 552.833,425.5 551.5,431.5C 551.5,432.167 551.5,432.833 551.5,433.5C 548.833,435.5 546.5,437.833 544.5,440.5C 543.508,440.328 542.842,440.662 542.5,441.5C 537.552,442.559 532.552,442.726 527.5,442C 525.159,440.047 522.493,438.881 519.5,438.5C 516.969,435.43 514.969,432.096 513.5,428.5C 513.283,423.77 513.617,419.103 514.5,414.5C 514.328,413.508 514.662,412.842 515.5,412.5C 518.694,409.728 521.694,406.728 524.5,403.5C 532.313,401.51 539.646,402.51 546.5,406.5C 548.605,408.592 550.272,410.925 551.5,413.5 Z"/></g>
<g><path style="opacity:1" fill="#9ebaa2" d="M 524.5,403.5 C 521.694,406.728 518.694,409.728 515.5,412.5C 517.36,408.395 520.36,405.395 524.5,403.5 Z"/></g>
<g><path style="opacity:1" fill="#f1cacb" d="M 683.5,403.5 C 683.678,407.122 683.011,410.456 681.5,413.5C 680.931,409.671 681.598,406.337 683.5,403.5 Z"/></g>
<g><path style="opacity:1" fill="#82a586" d="M 119.5,387.5 C 119.108,389.179 118.608,390.846 118,392.5C 112.96,398.147 109.126,404.481 106.5,411.5C 105.041,411.433 103.708,411.766 102.5,412.5C 107.627,403.757 113.293,395.424 119.5,387.5 Z"/></g>
<g><path style="opacity:1" fill="#8bab8f" d="M 102.5,412.5 C 102.759,414.989 101.759,416.656 99.5,417.5C 99.7215,415.336 100.721,413.67 102.5,412.5 Z"/></g>
<g><path style="opacity:1" fill="#bed1c1" d="M 168.5,405.5 C 166.222,412.392 162.222,418.059 156.5,422.5C 159.217,417.738 162.05,413.071 165,408.5C 165.759,406.937 166.926,405.937 168.5,405.5 Z"/></g>
<g><path style="opacity:1" fill="#91b195" d="M 615.5,414.5 C 617.587,415.585 618.92,417.251 619.5,419.5C 617.413,418.415 616.08,416.749 615.5,414.5 Z"/></g>
<g><path style="opacity:0.925" fill="#db7f81" d="M 707.5,387.5 C 707.5,390.833 707.5,394.167 707.5,397.5C 707.665,400.85 707.498,404.183 707,407.5C 705.756,410.638 705.089,413.972 705,417.5C 704.617,418.056 704.117,418.389 703.5,418.5C 704.759,408.033 706.092,397.7 707.5,387.5 Z"/></g>
<g><path style="opacity:1" fill="#a3bda7" d="M 452.5,400.5 C 448.915,414.443 448.582,428.443 451.5,442.5C 447.336,431.558 446.503,420.224 449,408.5C 449.638,405.399 450.805,402.732 452.5,400.5 Z"/></g>
<g><path style="opacity:1" fill="#9db8a0" d="M 514.5,414.5 C 513.617,419.103 513.283,423.77 513.5,428.5C 512.353,424.354 512.186,420.02 513,415.5C 513.383,414.944 513.883,414.611 514.5,414.5 Z"/></g>
<g><path style="opacity:1" fill="#eec4c5" d="M 680.5,420.5 C 679.419,426.817 678.419,433.15 677.5,439.5C 677.167,439.5 676.833,439.5 676.5,439.5C 676.918,432.85 678.252,426.516 680.5,420.5 Z"/></g>
<g><path style="opacity:1" fill="#c3d4c5" d="M 551.5,413.5 C 552.117,413.611 552.617,413.944 553,414.5C 554.908,419.845 554.908,425.178 553,430.5C 552.617,431.056 552.117,431.389 551.5,431.5C 552.833,425.5 552.833,419.5 551.5,413.5 Z"/></g>
<g><path style="opacity:1" fill="#90af94" d="M 156.5,422.5 C 155.92,424.749 154.587,426.415 152.5,427.5C 153.08,425.251 154.413,423.585 156.5,422.5 Z"/></g>
<g><path style="opacity:1" fill="#e49d9f" d="M 33.5,418.5 C 34.2216,418.918 34.7216,419.584 35,420.5C 35.5013,424.51 36.0013,428.51 36.5,432.5C 35.7784,432.082 35.2784,431.416 35,430.5C 34.4987,426.49 33.9987,422.49 33.5,418.5 Z"/></g>
<g><path style="opacity:1" fill="#9bb79e" d="M 151.5,428.5 C 151.002,431.326 149.669,433.66 147.5,435.5C 148.079,432.669 149.412,430.336 151.5,428.5 Z"/></g>
<g><path style="opacity:0.608" fill="#e7aaac" d="M 703.5,427.5 C 703.142,431.509 702.642,435.509 702,439.5C 701.617,440.056 701.117,440.389 700.5,440.5C 701.196,436.548 701.696,432.548 702,428.5C 702.383,427.944 702.883,427.611 703.5,427.5 Z"/></g>
<g><path style="opacity:1" fill="#9ab69e" d="M 551.5,433.5 C 550.167,436.833 547.833,439.167 544.5,440.5C 546.5,437.833 548.833,435.5 551.5,433.5 Z"/></g>
<g><path style="opacity:1" fill="#a3bda6" d="M 147.5,435.5 C 146.57,438.397 144.903,440.73 142.5,442.5C 143.443,439.571 145.11,437.237 147.5,435.5 Z"/></g>
<g><path style="opacity:1" fill="#a8c0ab" d="M 519.5,438.5 C 522.493,438.881 525.159,440.047 527.5,442C 532.552,442.726 537.552,442.559 542.5,441.5C 542.389,442.117 542.056,442.617 541.5,443C 535.804,443.83 530.137,443.663 524.5,442.5C 522.79,441.113 521.123,439.779 519.5,438.5 Z"/></g>
<g><path style="opacity:1" fill="#e19394" d="M 36.5,435.5 C 37.1174,435.611 37.6174,435.944 38,436.5C 39.8354,444.188 41.6688,451.855 43.5,459.5C 42.8826,459.389 42.3826,459.056 42,458.5C 40.1163,450.827 38.283,443.16 36.5,435.5 Z"/></g>
<g><path style="opacity:0.271" fill="#e9afb0" d="M 11.5,428.5 C 12.8884,433.782 14.7217,439.116 17,444.5C 17.4966,446.81 17.6633,449.143 17.5,451.5C 13.842,444.393 11.842,436.726 11.5,428.5 Z"/></g>
<g><path style="opacity:0.641" fill="#d87678" d="M 703.5,418.5 C 703.5,421.5 703.5,424.5 703.5,427.5C 702.883,427.611 702.383,427.944 702,428.5C 701.696,432.548 701.196,436.548 700.5,440.5C 697.422,450.578 694.755,460.912 692.5,471.5C 690.712,475.242 689.046,478.909 687.5,482.5C 691.316,468.154 695.316,453.821 699.5,439.5C 699.961,432.199 701.295,425.199 703.5,418.5 Z"/></g>
<g><path style="opacity:1" fill="#90b095" d="M 451.5,443.5 C 453.241,445.395 454.241,447.728 454.5,450.5C 452.759,448.605 451.759,446.272 451.5,443.5 Z"/></g>
<g><path style="opacity:1" fill="#de8a8c" d="M 676.5,439.5 C 676.833,439.5 677.167,439.5 677.5,439.5C 677.662,441.527 677.495,443.527 677,445.5C 676.261,447.889 675.095,449.889 673.5,451.5C 674.079,447.33 675.079,443.33 676.5,439.5 Z"/></g>
<g><path style="opacity:1" fill="#9fbaa3" d="M 135.5,451.5 C 135.002,454.326 133.669,456.66 131.5,458.5C 132.079,455.669 133.412,453.336 135.5,451.5 Z"/></g>
<g><path style="opacity:0.835" fill="#de8b8d" d="M 17.5,451.5 C 18.1174,451.611 18.6174,451.944 19,452.5C 19.4396,454.866 19.9396,457.199 20.5,459.5C 18.6614,457.347 17.6614,454.68 17.5,451.5 Z"/></g>
<g><path style="opacity:1" fill="#de898b" d="M 673.5,454.5 C 673.88,456.698 673.213,458.365 671.5,459.5C 671.12,457.302 671.787,455.635 673.5,454.5 Z"/></g>
<g><path style="opacity:1" fill="#96b49a" d="M 131.5,458.5 C 130.189,461.135 128.522,463.469 126.5,465.5C 127.069,462.281 128.736,459.948 131.5,458.5 Z"/></g>
<g><path style="opacity:1" fill="#89aa8d" d="M 71.5,458.5 C 69.6686,460.845 68.5019,463.512 68,466.5C 66.8873,467.305 65.7206,467.972 64.5,468.5C 65.8744,464.391 68.2078,461.057 71.5,458.5 Z"/></g>
<g><path style="opacity:1" fill="#6b9571" d="M 64.5,468.5 C 63.6993,470.042 63.366,471.708 63.5,473.5C 82.5,473.5 101.5,473.5 120.5,473.5C 101.007,474.497 81.3404,474.83 61.5,474.5C 61.3862,471.784 62.3862,469.784 64.5,468.5 Z"/></g>
<g><path style="opacity:1" fill="#67926d" d="M 467.5,472.5 C 530.294,473.828 592.961,473.828 655.5,472.5C 656.043,472.56 656.376,472.893 656.5,473.5C 593.837,474.5 531.17,474.833 468.5,474.5C 468.167,473.833 467.833,473.167 467.5,472.5 Z"/></g>
<g><path style="opacity:1" fill="#ccdace" d="M 124.5,468.5 C 123.883,470.68 122.883,472.68 121.5,474.5C 101.337,475.828 81.3373,475.828 61.5,474.5C 81.3404,474.83 101.007,474.497 120.5,473.5C 121.279,471.323 122.613,469.656 124.5,468.5 Z"/></g>
<g><path style="opacity:1" fill="#bfd1c1" d="M 383.5,388.5 C 384.498,417.329 384.831,446.329 384.5,475.5C 363.66,475.831 342.993,475.497 322.5,474.5C 323.167,474.5 323.833,474.5 324.5,474.5C 344.167,474.5 363.833,474.5 383.5,474.5C 383.5,446.167 383.5,417.833 383.5,389.5C 383.5,389.167 383.5,388.833 383.5,388.5 Z"/></g>
<g><path style="opacity:1" fill="#cedcd0" d="M 653.5,468.5 C 654.675,468.281 655.675,468.614 656.5,469.5C 657.348,471.409 657.682,473.409 657.5,475.5C 594.331,475.832 531.331,475.499 468.5,474.5C 531.17,474.833 593.837,474.5 656.5,473.5C 656.376,472.893 656.043,472.56 655.5,472.5C 654.4,471.395 653.733,470.062 653.5,468.5 Z"/></g>
<g><path style="opacity:1" fill="#f2cfd0" d="M 46.5,468.5 C 50.6464,475.795 53.9797,483.461 56.5,491.5C 53.9274,488.601 52.2608,485.268 51.5,481.5C 48.8699,477.621 47.2032,473.287 46.5,468.5 Z"/></g>
<g><path style="opacity:1" fill="#b9a68f" d="M 403.5,485.5 C 368.827,485.167 334.16,485.5 299.5,486.5C 299.058,487.739 298.391,488.739 297.5,489.5C 297.286,487.856 297.62,486.356 298.5,485C 333.669,484.169 368.669,484.336 403.5,485.5 Z"/></g>
<g><path style="opacity:1" fill="#896941" d="M 403.5,485.5 C 405.104,486.287 405.771,487.62 405.5,489.5C 407.605,493.901 409.105,498.568 410,503.5C 410.852,504.571 411.685,505.571 412.5,506.5C 416.302,516.766 420.635,526.766 425.5,536.5C 425.338,538.527 425.505,540.527 426,542.5C 428.235,545.389 430.069,548.389 431.5,551.5C 432.693,555.307 434.026,558.974 435.5,562.5C 437.855,572.431 441.855,581.431 447.5,589.5C 447.5,590.167 447.5,590.833 447.5,591.5C 448.359,595.274 449.359,598.941 450.5,602.5C 385.83,602.833 321.163,602.5 256.5,601.5C 257.374,599.253 257.708,596.92 257.5,594.5C 262.243,583.822 266.243,572.822 269.5,561.5C 272.569,556.677 274.902,551.344 276.5,545.5C 280.401,531.29 285.568,517.623 292,504.5C 292.777,498.977 294.61,493.977 297.5,489.5C 298.391,488.739 299.058,487.739 299.5,486.5C 334.16,485.5 368.827,485.167 403.5,485.5 Z"/></g>
<g><path style="opacity:1" fill="#dc8183" d="M 666.5,476.5 C 664.772,481.515 662.939,486.515 661,491.5C 660.098,493.431 658.931,495.097 657.5,496.5C 659.79,489.305 662.79,482.638 666.5,476.5 Z"/></g>
<g><path style="opacity:1" fill="#d9797b" d="M 51.5,481.5 C 52.2608,485.268 53.9274,488.601 56.5,491.5C 56.6287,493.216 56.962,494.883 57.5,496.5C 56.02,494.142 54.3534,491.809 52.5,489.5C 51.52,486.914 51.1866,484.247 51.5,481.5 Z"/></g>
<g><path style="opacity:0.173" fill="#efc2c3" d="M 25.5,479.5 C 28.6118,484.369 30.9451,489.703 32.5,495.5C 28.0683,491.245 25.735,485.912 25.5,479.5 Z"/></g>
<g><path style="opacity:1" fill="#c4b5a1" d="M 367.5,497.5 C 356.833,493.5 346.167,493.5 335.5,497.5C 336.903,496.069 338.569,494.902 340.5,494C 347.833,493.333 355.167,493.333 362.5,494C 364.431,494.902 366.097,496.069 367.5,497.5 Z"/></g>
<g><path style="opacity:1" fill="#fbfaf9" d="M 367.5,497.5 C 369.98,498.912 372.313,500.578 374.5,502.5C 375.28,505.851 376.613,509.018 378.5,512C 380.461,523.215 378.128,533.382 371.5,542.5C 367.608,545.232 363.942,548.398 360.5,552C 357.996,552.955 355.663,554.122 353.5,555.5C 343.833,560.331 334.5,565.664 325.5,571.5C 319.983,574.51 314.65,577.844 309.5,581.5C 345.827,582.5 382.161,582.833 418.5,582.5C 418.5,585.167 418.5,587.833 418.5,590.5C 374.167,590.5 329.833,590.5 285.5,590.5C 285.298,588.05 285.631,585.717 286.5,583.5C 286.5,583.167 286.5,582.833 286.5,582.5C 290.776,579.314 295.11,576.314 299.5,573.5C 300.574,572.115 301.907,570.949 303.5,570C 309.489,567.672 315.156,564.839 320.5,561.5C 323.564,560.629 326.564,559.462 329.5,558C 333.04,555.735 336.373,553.235 339.5,550.5C 341.363,548.295 343.697,546.961 346.5,546.5C 350.572,544.711 354.239,542.377 357.5,539.5C 362.884,536.449 366.884,532.115 369.5,526.5C 371.033,524.366 371.7,521.866 371.5,519C 371.7,516.134 371.033,513.634 369.5,511.5C 368.041,507.703 365.374,505.369 361.5,504.5C 361.389,503.883 361.056,503.383 360.5,503C 357.052,502.141 353.552,501.641 350,501.5C 346.85,501.36 344.017,502.027 341.5,503.5C 338.167,504.833 335.833,507.167 334.5,510.5C 334.5,510.833 334.5,511.167 334.5,511.5C 332.657,513.547 331.324,516.047 330.5,519C 327.854,519.497 325.187,519.664 322.5,519.5C 320.243,508.32 324.577,500.986 335.5,497.5C 346.167,493.5 356.833,493.5 367.5,497.5 Z"/></g>
<g><path style="opacity:0.796" fill="#d97779" d="M 32.5,495.5 C 34.9389,498.874 36.9389,502.541 38.5,506.5C 37.1667,505.5 35.8333,504.5 34.5,503.5C 33.3608,500.996 32.6941,498.33 32.5,495.5 Z"/></g>
<g><path style="opacity:1" fill="#aa9376" d="M 361.5,504.5 C 354.891,503.577 348.224,503.244 341.5,503.5C 344.017,502.027 346.85,501.36 350,501.5C 353.552,501.641 357.052,502.141 360.5,503C 361.056,503.383 361.389,503.883 361.5,504.5 Z"/></g>
<g><path style="opacity:0.416" fill="#e29798" d="M 687.5,484.5 C 684.785,490.607 682.619,496.94 681,503.5C 678.7,507.797 676.2,511.797 673.5,515.5C 676.752,507.986 679.752,500.319 682.5,492.5C 683.716,489.367 685.383,486.7 687.5,484.5 Z"/></g>
<g><path style="opacity:1" fill="#baa790" d="M 405.5,489.5 C 409.172,494.492 411.505,500.159 412.5,506.5C 411.685,505.571 410.852,504.571 410,503.5C 409.105,498.568 407.605,493.901 405.5,489.5 Z"/></g>
<g><path style="opacity:1" fill="#dc8385" d="M 657.5,496.5 C 657.237,500.686 655.571,504.019 652.5,506.5C 653.35,502.68 655.017,499.347 657.5,496.5 Z"/></g>
<g><path style="opacity:0.361" fill="#ebb6b8" d="M 34.5,503.5 C 35.8333,504.5 37.1667,505.5 38.5,506.5C 38.5,507.833 38.5,509.167 38.5,510.5C 36.4076,508.654 35.0742,506.321 34.5,503.5 Z"/></g>
<g><path style="opacity:1" fill="#c2b29e" d="M 341.5,503.5 C 339.5,506.167 337.167,508.5 334.5,510.5C 335.833,507.167 338.167,504.833 341.5,503.5 Z"/></g>
<g><path style="opacity:0.702" fill="#e08e90" d="M 38.5,510.5 C 40.9547,512.632 42.6214,515.299 43.5,518.5C 40.7892,516.596 39.1225,513.93 38.5,510.5 Z"/></g>
<g><path style="opacity:1" fill="#b4a087" d="M 369.5,511.5 C 371.033,513.634 371.7,516.134 371.5,519C 371.7,521.866 371.033,524.366 369.5,526.5C 370.833,521.5 370.833,516.5 369.5,511.5 Z"/></g>
<g><path style="opacity:1" fill="#db7f81" d="M 66.5,515.5 C 69.5926,519.347 71.9259,523.68 73.5,528.5C 70.2321,524.719 67.8988,520.386 66.5,515.5 Z"/></g>
<g><path style="opacity:1" fill="#c1b19c" d="M 334.5,511.5 C 334.346,520.157 330.346,522.824 322.5,519.5C 325.187,519.664 327.854,519.497 330.5,519C 331.324,516.047 332.657,513.547 334.5,511.5 Z"/></g>
<g><path style="opacity:1" fill="#d8cdc0" d="M 374.5,502.5 C 376.823,505.135 378.656,508.135 380,511.5C 381.336,520.157 380.336,528.49 377,536.5C 375.669,538.996 373.836,540.996 371.5,542.5C 378.128,533.382 380.461,523.215 378.5,512C 376.613,509.018 375.28,505.851 374.5,502.5 Z"/></g>
<g><path style="opacity:1" fill="#edbdbe" d="M 646.5,518.5 C 645.65,520.603 644.65,522.603 643.5,524.5C 643.167,524.5 642.833,524.5 642.5,524.5C 642.948,521.828 644.281,519.828 646.5,518.5 Z"/></g>
<g><path style="opacity:0.522" fill="#e6a5a7" d="M 43.5,520.5 C 45.4615,523.18 47.1282,526.18 48.5,529.5C 45.576,527.33 43.9093,524.33 43.5,520.5 Z"/></g>
<g><path style="opacity:0.78" fill="#df8b8c" d="M 673.5,516.5 C 672.337,520.823 670.504,524.823 668,528.5C 667.241,530.063 666.074,531.063 664.5,531.5C 666.778,525.927 669.778,520.927 673.5,516.5 Z"/></g>
<g><path style="opacity:1" fill="#da7b7c" d="M 642.5,524.5 C 642.833,524.5 643.167,524.5 643.5,524.5C 642.672,528.635 640.672,531.968 637.5,534.5C 639.159,531.182 640.826,527.849 642.5,524.5 Z"/></g>
<g><path style="opacity:1" fill="#c2b29e" d="M 369.5,526.5 C 366.884,532.115 362.884,536.449 357.5,539.5C 361.507,535.16 365.507,530.827 369.5,526.5 Z"/></g>
<g><path style="opacity:1" fill="#e8aeaf" d="M 636.5,534.5 C 636.002,537.326 634.669,539.66 632.5,541.5C 633.079,538.669 634.412,536.336 636.5,534.5 Z"/></g>
<g><path style="opacity:0.741" fill="#e6a3a4" d="M 53.5,538.5 C 55.1921,540.205 56.5254,542.205 57.5,544.5C 54.6874,543.554 53.354,541.554 53.5,538.5 Z"/></g>
<g><path style="opacity:1" fill="#b7a38b" d="M 357.5,539.5 C 354.239,542.377 350.572,544.711 346.5,546.5C 346.937,544.926 347.937,543.759 349.5,543C 352.064,541.604 354.731,540.437 357.5,539.5 Z"/></g>
<g><path style="opacity:0.816" fill="#d87375" d="M 664.5,533.5 C 661.961,538.475 658.961,543.142 655.5,547.5C 657.458,542.065 660.458,537.398 664.5,533.5 Z"/></g>
<g><path style="opacity:1" fill="#df8b8d" d="M 632.5,541.5 C 632.092,545.573 630.092,548.573 626.5,550.5C 628.124,547.217 630.124,544.217 632.5,541.5 Z"/></g>
<g><path style="opacity:1" fill="#bba891" d="M 425.5,536.5 C 428.148,541.165 430.148,546.165 431.5,551.5C 430.069,548.389 428.235,545.389 426,542.5C 425.505,540.527 425.338,538.527 425.5,536.5 Z"/></g>
<g><path style="opacity:1" fill="#b19b81" d="M 276.5,545.5 C 274.902,551.344 272.569,556.677 269.5,561.5C 271.098,555.656 273.431,550.323 276.5,545.5 Z"/></g>
<g><path style="opacity:1" fill="#e08e8f" d="M 626.5,550.5 C 624.393,555.683 621.06,560.016 616.5,563.5C 619.589,558.993 622.923,554.659 626.5,550.5 Z"/></g>
<g><path style="opacity:0.396" fill="#e9b0b1" d="M 652.5,554.5 C 651.166,558.34 648.833,561.34 645.5,563.5C 645.833,562.833 646.167,562.167 646.5,561.5C 648.173,558.832 650.173,556.498 652.5,554.5 Z"/></g>
<g><path style="opacity:1" fill="#dbd1c5" d="M 339.5,550.5 C 336.373,553.235 333.04,555.735 329.5,558C 326.564,559.462 323.564,560.629 320.5,561.5C 326.555,557.465 332.889,553.798 339.5,550.5 Z"/></g>
<g><path style="opacity:0.51" fill="#e8aeaf" d="M 64.5,557.5 C 66.8363,558.845 68.503,560.845 69.5,563.5C 66.8569,562.377 65.1902,560.377 64.5,557.5 Z"/></g>
<g><path style="opacity:0.765" fill="#e29799" d="M 69.5,563.5 C 71.543,564.579 72.8763,566.246 73.5,568.5C 71.071,567.735 69.7377,566.069 69.5,563.5 Z"/></g>
<g><path style="opacity:1" fill="#e2989a" d="M 615.5,564.5 C 614.289,568.377 611.956,571.377 608.5,573.5C 610.482,570.19 612.815,567.19 615.5,564.5 Z"/></g>
<g><path style="opacity:1" fill="#ccbead" d="M 353.5,555.5 C 346.128,561.079 338.295,566.079 330,570.5C 328.56,571.148 327.06,571.481 325.5,571.5C 334.5,565.664 343.833,560.331 353.5,555.5 Z"/></g>
<g><path style="opacity:0.635" fill="#da7b7d" d="M 646.5,561.5 C 646.167,562.167 645.833,562.833 645.5,563.5C 642.936,569.061 639.269,573.727 634.5,577.5C 637.615,571.44 641.615,566.107 646.5,561.5 Z"/></g>
<g><path style="opacity:1" fill="#b19c82" d="M 435.5,562.5 C 438.759,566.076 440.592,570.41 441,575.5C 443.648,579.944 445.815,584.611 447.5,589.5C 441.855,581.431 437.855,572.431 435.5,562.5 Z"/></g>
<g><path style="opacity:1" fill="#dc8183" d="M 608.5,573.5 C 608.657,576.344 607.324,578.011 604.5,578.5C 605.08,576.251 606.413,574.585 608.5,573.5 Z"/></g>
<g><path style="opacity:1" fill="#dd8687" d="M 104.5,572.5 C 106.833,574.5 109.167,576.5 111.5,578.5C 112.11,579.391 112.443,580.391 112.5,581.5C 109.097,579.1 106.43,576.1 104.5,572.5 Z"/></g>
<g><path style="opacity:1" fill="#c8b9a7" d="M 299.5,573.5 C 295.11,576.314 290.776,579.314 286.5,582.5C 289.622,577.883 293.955,574.883 299.5,573.5 Z"/></g>
<g><path style="opacity:1" fill="#f2cecf" d="M 111.5,578.5 C 113.737,580.737 116.071,583.071 118.5,585.5C 119.127,586.417 119.461,587.417 119.5,588.5C 116.973,586.395 114.64,584.061 112.5,581.5C 112.443,580.391 112.11,579.391 111.5,578.5 Z"/></g>
<g><path style="opacity:1" fill="#9d8363" d="M 314.5,579.5 C 349.5,580.167 384.5,580.833 419.5,581.5C 384.16,581.833 348.827,581.5 313.5,580.5C 313.624,579.893 313.957,579.56 314.5,579.5 Z"/></g>
<g><path style="opacity:1" fill="#c1b19c" d="M 325.5,571.5 C 322.131,574.53 318.464,577.197 314.5,579.5C 313.957,579.56 313.624,579.893 313.5,580.5C 348.827,581.5 384.16,581.833 419.5,581.5C 419.5,581.833 419.5,582.167 419.5,582.5C 419.167,582.5 418.833,582.5 418.5,582.5C 382.161,582.833 345.827,582.5 309.5,581.5C 314.65,577.844 319.983,574.51 325.5,571.5 Z"/></g>
<g><path style="opacity:1" fill="#e19597" d="M 604.5,578.5 C 603.876,580.754 602.543,582.421 600.5,583.5C 601.136,581.205 602.469,579.539 604.5,578.5 Z"/></g>
<g><path style="opacity:0.698" fill="#db7f81" d="M 633.5,579.5 C 631.575,583.426 628.908,586.759 625.5,589.5C 627.013,585.229 629.679,581.896 633.5,579.5 Z"/></g>
<g><path style="opacity:1" fill="#e5a0a2" d="M 600.5,583.5 C 599.167,585.5 597.5,587.167 595.5,588.5C 596.167,585.833 597.833,584.167 600.5,583.5 Z"/></g>
<g><path style="opacity:1" fill="#d8cdc0" d="M 418.5,582.5 C 418.833,582.5 419.167,582.5 419.5,582.5C 419.5,585.5 419.5,588.5 419.5,591.5C 374.664,591.832 329.997,591.499 285.5,590.5C 329.833,590.5 374.167,590.5 418.5,590.5C 418.5,587.833 418.5,585.167 418.5,582.5 Z"/></g>
<g><path style="opacity:1" fill="#9b805f" d="M 286.5,583.5 C 285.631,585.717 285.298,588.05 285.5,590.5C 329.997,591.499 374.664,591.832 419.5,591.5C 374.846,593.495 329.846,594.162 284.5,593.5C 283.931,589.671 284.598,586.337 286.5,583.5 Z"/></g>
<g><path style="opacity:1" fill="#a48c6e" d="M 447.5,591.5 C 449.902,594.997 451.569,598.997 452.5,603.5C 386.158,604.163 320.158,603.497 254.5,601.5C 255.264,598.982 256.264,596.649 257.5,594.5C 257.708,596.92 257.374,599.253 256.5,601.5C 321.163,602.5 385.83,602.833 450.5,602.5C 449.359,598.941 448.359,595.274 447.5,591.5 Z"/></g>
<g><path style="opacity:1" fill="#e2dbd0" d="M 254.5,601.5 C 320.158,603.497 386.158,604.163 452.5,603.5C 386.335,604.499 320.002,604.832 253.5,604.5C 253.263,603.209 253.596,602.209 254.5,601.5 Z"/></g>
<g><path style="opacity:0.886" fill="#dd8384" d="M 108.5,610.5 C 111.747,611.412 114.08,613.412 115.5,616.5C 112.867,614.868 110.533,612.868 108.5,610.5 Z"/></g>
<g><path style="opacity:1" fill="#dc8384" d="M 137.5,606.5 C 140.386,607.596 142.386,609.596 143.5,612.5C 141.061,610.973 139.061,608.973 137.5,606.5 Z"/></g>
<g><path style="opacity:1" fill="#d87273" d="M 579.5,604.5 C 576.627,609.937 572.293,613.604 566.5,615.5C 570.187,611.153 574.52,607.486 579.5,604.5 Z"/></g>
<g><path style="opacity:0.231" fill="#ebb5b7" d="M 608.5,609.5 C 607.473,612.858 605.14,614.525 601.5,614.5C 603.271,612.065 605.604,610.398 608.5,609.5 Z"/></g>
<g><path style="opacity:0.149" fill="#ebb2b5" d="M 599.5,617.5 C 598.73,619.935 597.063,621.269 594.5,621.5C 595.873,619.793 597.539,618.46 599.5,617.5 Z"/></g>
<g><path style="opacity:1" fill="#edc0c1" d="M 157.5,622.5 C 159.749,623.08 161.415,624.413 162.5,626.5C 160.251,625.92 158.585,624.587 157.5,622.5 Z"/></g>
<g><path style="opacity:1" fill="#de8889" d="M 566.5,615.5 C 560.824,622.615 553.824,627.949 545.5,631.5C 552.273,625.938 559.273,620.605 566.5,615.5 Z"/></g>
<g><path style="opacity:1" fill="#e6a3a3" d="M 175.5,635.5 C 180.736,637.759 185.402,640.759 189.5,644.5C 185.285,642.958 181.285,640.958 177.5,638.5C 176.388,637.735 175.721,636.735 175.5,635.5 Z"/></g>
<g><path style="opacity:0.549" fill="#dd8688" d="M 578.5,635.5 C 575.112,638.714 571.445,641.714 567.5,644.5C 567.859,642.629 568.859,641.129 570.5,640C 573.073,638.244 575.74,636.744 578.5,635.5 Z"/></g>
<g><path style="opacity:0.871" fill="#dc8284" d="M 148.5,644.5 C 151.147,644.929 153.147,646.262 154.5,648.5C 152.034,647.702 150.034,646.369 148.5,644.5 Z"/></g>
<g><path style="opacity:0.192" fill="#e2999a" d="M 566.5,644.5 C 565.554,647.313 563.554,648.646 560.5,648.5C 562.06,646.571 564.06,645.238 566.5,644.5 Z"/></g>
<g><path style="opacity:1" fill="#efc5c6" d="M 194.5,647.5 C 199.483,648.915 203.816,651.248 207.5,654.5C 202.779,652.718 198.446,650.385 194.5,647.5 Z"/></g>
<g><path style="opacity:1" fill="#e7a9aa" d="M 519.5,647.5 C 517.371,649.95 514.704,651.617 511.5,652.5C 513.629,650.05 516.296,648.383 519.5,647.5 Z"/></g>
<g><path style="opacity:0.349" fill="#e3999b" d="M 559.5,649.5 C 558.522,652.325 556.522,653.658 553.5,653.5C 554.95,651.39 556.95,650.057 559.5,649.5 Z"/></g>
<g><path style="opacity:0.525" fill="#df8d90" d="M 161.5,654.5 C 164.554,654.354 166.554,655.687 167.5,658.5C 165.205,657.525 163.205,656.192 161.5,654.5 Z"/></g>
<g><path style="opacity:0.922" fill="#dc8081" d="M 168.5,658.5 C 172.107,658.565 174.44,660.231 175.5,663.5C 172.557,662.541 170.224,660.875 168.5,658.5 Z"/></g>
<g><path style="opacity:1" fill="#ecbbbc" d="M 208.5,654.5 C 214.949,656.342 220.615,659.342 225.5,663.5C 219.558,660.861 213.892,657.861 208.5,654.5 Z"/></g>
<g><path style="opacity:1" fill="#da7a7c" d="M 503.5,656.5 C 502.71,657.794 501.71,658.961 500.5,660C 496.751,660.918 493.084,662.085 489.5,663.5C 490.23,662.288 491.23,661.288 492.5,660.5C 496.286,659.438 499.952,658.105 503.5,656.5 Z"/></g>
<g><path style="opacity:0.922" fill="#db7c7e" d="M 534.5,665.5 C 531.067,667.804 527.733,670.471 524.5,673.5C 522.929,674.309 521.262,674.643 519.5,674.5C 521.43,672.55 523.763,671.217 526.5,670.5C 526.5,669.5 526.5,668.5 526.5,667.5C 529.267,667.142 531.933,666.475 534.5,665.5 Z"/></g>
<g><path style="opacity:0.98" fill="#d5696b" d="M 184.5,668.5 C 186.547,668.511 188.547,668.844 190.5,669.5C 194.981,672.273 199.314,674.939 203.5,677.5C 202.391,677.443 201.391,677.11 200.5,676.5C 198.071,676.116 195.737,675.449 193.5,674.5C 191.883,671.348 189.216,669.682 185.5,669.5C 184.833,669.5 184.5,669.167 184.5,668.5 Z"/></g>
<g><path style="opacity:1" fill="#f2d0d1" d="M 240.5,669.5 C 245.562,668.988 249.895,670.321 253.5,673.5C 248.805,673.018 244.471,671.684 240.5,669.5 Z"/></g>
<g><path style="opacity:0.627" fill="#e7a5a7" d="M 185.5,669.5 C 189.216,669.682 191.883,671.348 193.5,674.5C 190.405,673.298 187.738,671.632 185.5,669.5 Z"/></g>
<g><path style="opacity:1" fill="#dc8183" d="M 473.5,670.5 C 471.485,671.924 469.152,672.59 466.5,672.5C 466.611,671.883 466.944,671.383 467.5,671C 469.473,670.505 471.473,670.338 473.5,670.5 Z"/></g>
<g><path style="opacity:1" fill="#d77274" d="M 466.5,672.5 C 464.417,673.973 462.084,675.14 459.5,676C 457.527,676.495 455.527,676.662 453.5,676.5C 453.5,676.167 453.5,675.833 453.5,675.5C 457.786,674.293 462.12,673.293 466.5,672.5 Z"/></g>
<g><path style="opacity:1" fill="#f2d1d1" d="M 453.5,675.5 C 453.5,675.833 453.5,676.167 453.5,676.5C 448.029,678.58 442.363,679.913 436.5,680.5C 441.718,678.101 447.385,676.434 453.5,675.5 Z"/></g>
<g><path style="opacity:0.557" fill="#e19293" d="M 518.5,674.5 C 514.985,678.095 510.651,680.428 505.5,681.5C 509.17,678.06 513.503,675.726 518.5,674.5 Z"/></g>
<g><path style="opacity:1" fill="#efc4c5" d="M 255.5,674.5 C 271.813,678.091 287.813,682.091 303.5,686.5C 298.464,686.412 293.464,685.912 288.5,685C 278.192,680.994 267.525,677.994 256.5,676C 255.944,675.617 255.611,675.117 255.5,674.5 Z"/></g>
<g><path style="opacity:0.58" fill="#e19697" d="M 200.5,676.5 C 201.391,677.11 202.391,677.443 203.5,677.5C 205.966,678.298 207.966,679.631 209.5,681.5C 205.67,681.091 202.67,679.424 200.5,676.5 Z"/></g>
<g><path style="opacity:1" fill="#da7e80" d="M 432.5,682.5 C 425.976,685.298 418.976,686.632 411.5,686.5C 415.729,685.152 420.062,683.985 424.5,683C 427.146,682.503 429.813,682.336 432.5,682.5 Z"/></g>
<g><path style="opacity:1" fill="#e8b0b1" d="M 306.5,686.5 C 311.668,686.934 316.668,687.6 321.5,688.5C 317.486,688.666 313.486,688.499 309.5,688C 308.263,687.768 307.263,687.268 306.5,686.5 Z"/></g>
<g><path style="opacity:0.522" fill="#d87375" d="M 502.5,681.5 C 500.135,684.202 497.135,686.202 493.5,687.5C 488.347,688.83 483.347,690.497 478.5,692.5C 477.391,692.557 476.391,692.89 475.5,693.5C 476.335,692.057 477.668,691.057 479.5,690.5C 487.496,688.255 495.163,685.255 502.5,681.5 Z"/></g>
<g><path style="opacity:1" fill="#ecbdbe" d="M 404.5,686.5 C 401.493,688.175 398.16,688.841 394.5,688.5C 390.534,689.162 386.534,689.495 382.5,689.5C 389.6,687.841 396.933,686.841 404.5,686.5 Z"/></g>
<g><path style="opacity:1" fill="#dc8688" d="M 394.5,688.5 C 393.737,689.268 392.737,689.768 391.5,690C 386.177,690.499 380.844,690.666 375.5,690.5C 375.5,690.167 375.5,689.833 375.5,689.5C 377.833,689.5 380.167,689.5 382.5,689.5C 386.534,689.495 390.534,689.162 394.5,688.5 Z"/></g>
<g><path style="opacity:1" fill="#e39c9d" d="M 326.5,689.5 C 342.833,689.5 359.167,689.5 375.5,689.5C 375.5,689.833 375.5,690.167 375.5,690.5C 359.038,691.959 342.705,691.625 326.5,689.5 Z"/></g>
<g><path style="opacity:0.631" fill="#e08f92" d="M 231.5,690.5 C 236.481,690.961 240.814,692.627 244.5,695.5C 239.688,694.573 235.355,692.906 231.5,690.5 Z"/></g>
<g><path style="opacity:0.165" fill="#e8acad" d="M 478.5,692.5 C 474.816,695.435 470.483,697.102 465.5,697.5C 468.23,695.074 471.563,693.741 475.5,693.5C 476.391,692.89 477.391,692.557 478.5,692.5 Z"/></g>
<g><path style="opacity:0.706" fill="#db7f82" d="M 247.5,695.5 C 251.801,696.718 256.135,697.885 260.5,699C 261.056,699.383 261.389,699.883 261.5,700.5C 260.391,700.443 259.391,700.11 258.5,699.5C 254.308,699.108 250.641,697.774 247.5,695.5 Z"/></g>
<g><path style="opacity:0.133" fill="#eebebf" d="M 258.5,699.5 C 259.391,700.11 260.391,700.443 261.5,700.5C 262.833,700.5 264.167,700.5 265.5,700.5C 267.167,701.833 268.833,703.167 270.5,704.5C 265.917,703.803 261.917,702.136 258.5,699.5 Z"/></g>
<g><path style="opacity:0.533" fill="#dc8182" d="M 265.5,700.5 C 276.601,703.711 287.934,706.211 299.5,708C 300.056,708.383 300.389,708.883 300.5,709.5C 299.167,709.167 297.833,708.833 296.5,708.5C 287.763,707.595 279.096,706.262 270.5,704.5C 268.833,703.167 267.167,701.833 265.5,700.5 Z"/></g>
<g><path style="opacity:0.31" fill="#e6a4a7" d="M 450.5,701.5 C 447.984,703.323 444.984,704.323 441.5,704.5C 441.611,703.883 441.944,703.383 442.5,703C 445.207,702.605 447.873,702.105 450.5,701.5 Z"/></g>
<g><path style="opacity:0.18" fill="#ebb6b7" d="M 437.5,704.5 C 436.817,706.176 435.483,706.843 433.5,706.5C 434.183,704.824 435.517,704.157 437.5,704.5 Z"/></g>
<g><path style="opacity:0.6" fill="#dd8689" d="M 427.5,706.5 C 427.389,707.117 427.056,707.617 426.5,708C 420.96,708.149 415.627,708.982 410.5,710.5C 407.763,710.401 405.096,710.735 402.5,711.5C 405.701,709.74 409.367,708.906 413.5,709C 414.056,708.617 414.389,708.117 414.5,707.5C 418.869,707.533 423.202,707.2 427.5,706.5 Z"/></g>
<g><path style="opacity:0.502" fill="#e8adae" d="M 296.5,708.5 C 297.833,708.833 299.167,709.167 300.5,709.5C 302.833,709.5 305.167,709.5 307.5,709.5C 308.167,710.167 308.833,710.833 309.5,711.5C 304.703,711.439 300.369,710.439 296.5,708.5 Z"/></g>
<g><path style="opacity:0.141" fill="#f2ccce" d="M 410.5,710.5 C 405.236,712.307 399.569,713.307 393.5,713.5C 395.988,711.612 398.988,710.945 402.5,711.5C 405.096,710.735 407.763,710.401 410.5,710.5 Z"/></g>
<g><path style="opacity:0.455" fill="#e39b9d" d="M 318.5,711.5 C 322.489,711.116 326.155,711.783 329.5,713.5C 326.482,713.665 323.482,713.498 320.5,713C 319.584,712.722 318.918,712.222 318.5,711.5 Z"/></g>
<g><path style="opacity:0.543" fill="#d4686b" d="M 414.5,707.5 C 414.389,708.117 414.056,708.617 413.5,709C 409.367,708.906 405.701,709.74 402.5,711.5C 398.988,710.945 395.988,711.612 393.5,713.5C 372.167,713.5 350.833,713.5 329.5,713.5C 326.155,711.783 322.489,711.116 318.5,711.5C 315.5,711.5 312.5,711.5 309.5,711.5C 308.833,710.833 308.167,710.167 307.5,709.5C 343.376,714.043 379.043,713.376 414.5,707.5 Z"/></g>
</svg>
